<?xml version="1.0" encoding="UTF-8" standalone="no"?>
<!DOCTYPE svg PUBLIC "-//W3C//DTD SVG 1.1//EN"
 "http://www.w3.org/Graphics/SVG/1.1/DTD/svg11.dtd">
<!-- Generated by graphviz version 5.0.1 (20220820.1526)
 -->
<!-- Title: G Pages: 1 -->
<svg width="583pt" height="186pt"
 viewBox="0.00 0.00 583.00 186.00" xmlns="http://www.w3.org/2000/svg" xmlns:xlink="http://www.w3.org/1999/xlink">
<g id="graph0" class="graph" transform="scale(1 1) rotate(0) translate(4 182)">
<title>G</title>
<polygon fill="white" stroke="none" points="-4,4 -4,-182 579,-182 579,4 -4,4"/>
<!-- Bar -->
<g id="node1" class="node">
<title>Bar</title>
<polygon fill="none" stroke="black" points="0,-24.5 0,-139.5 92,-139.5 92,-24.5 0,-24.5"/>
<text text-anchor="middle" x="24" y="-78.3" font-family="Times New Roman,serif" font-size="14.00">&quot;Bar&quot;</text>
<polyline fill="none" stroke="black" points="48,-24.5 48,-139.5"/>
<text text-anchor="middle" x="70" y="-124.3" font-family="Times New Roman,serif" font-size="14.00">pin 1</text>
<polyline fill="none" stroke="black" points="48,-116.5 92,-116.5"/>
<text text-anchor="middle" x="70" y="-101.3" font-family="Times New Roman,serif" font-size="14.00">2</text>
<polyline fill="none" stroke="black" points="48,-93.5 92,-93.5"/>
<text text-anchor="middle" x="70" y="-78.3" font-family="Times New Roman,serif" font-size="14.00">3</text>
<polyline fill="none" stroke="black" points="48,-70.5 92,-70.5"/>
<text text-anchor="middle" x="70" y="-55.3" font-family="Times New Roman,serif" font-size="14.00">4</text>
<polyline fill="none" stroke="black" points="48,-47.5 92,-47.5"/>
<text text-anchor="middle" x="70" y="-32.3" font-family="Times New Roman,serif" font-size="14.00">5</text>
</g>
<!-- Foo -->
<g id="node2" class="node">
<title>Foo</title>
<polygon fill="none" stroke="black" points="128,-0.5 128,-161.5 268,-161.5 268,-0.5 128,-0.5"/>
<text text-anchor="middle" x="151.5" y="-141.8" font-family="Times New Roman,serif" font-size="14.00">data0</text>
<polyline fill="none" stroke="black" points="128,-129.5 175,-129.5"/>
<text text-anchor="middle" x="151.5" y="-109.8" font-family="Times New Roman,serif" font-size="14.00">data1</text>
<polyline fill="none" stroke="black" points="128,-97.5 175,-97.5"/>
<text text-anchor="middle" x="151.5" y="-77.8" font-family="Times New Roman,serif" font-size="14.00">data2</text>
<polyline fill="none" stroke="black" points="128,-65.5 175,-65.5"/>
<text text-anchor="middle" x="151.5" y="-45.8" font-family="Times New Roman,serif" font-size="14.00">data3</text>
<polyline fill="none" stroke="black" points="128,-33.5 175,-33.5"/>
<text text-anchor="middle" x="151.5" y="-13.3" font-family="Times New Roman,serif" font-size="14.00">data4</text>
<polyline fill="none" stroke="black" points="175,-0.5 175,-161.5"/>
<text text-anchor="middle" x="201" y="-77.3" font-family="Times New Roman,serif" font-size="14.00">&quot;Foo&quot;</text>
<polyline fill="none" stroke="black" points="227,-0.5 227,-161.5"/>
<text text-anchor="middle" x="247.5" y="-146.3" font-family="Times New Roman,serif" font-size="14.00">out0</text>
<polyline fill="none" stroke="black" points="227,-138.5 268,-138.5"/>
<text text-anchor="middle" x="247.5" y="-123.3" font-family="Times New Roman,serif" font-size="14.00">out1</text>
<polyline fill="none" stroke="black" points="227,-115.5 268,-115.5"/>
<text text-anchor="middle" x="247.5" y="-100.3" font-family="Times New Roman,serif" font-size="14.00">out2</text>
<polyline fill="none" stroke="black" points="227,-92.5 268,-92.5"/>
<text text-anchor="middle" x="247.5" y="-77.3" font-family="Times New Roman,serif" font-size="14.00">gnd</text>
<polyline fill="none" stroke="black" points="227,-69.5 268,-69.5"/>
<text text-anchor="middle" x="247.5" y="-54.3" font-family="Times New Roman,serif" font-size="14.00">ex0</text>
<polyline fill="none" stroke="black" points="227,-46.5 268,-46.5"/>
<text text-anchor="middle" x="247.5" y="-31.3" font-family="Times New Roman,serif" font-size="14.00">hi</text>
<polyline fill="none" stroke="black" points="227,-23.5 268,-23.5"/>
<text text-anchor="middle" x="247.5" y="-8.3" font-family="Times New Roman,serif" font-size="14.00">lo</text>
</g>
<!-- Bar&#45;&gt;Foo -->
<g id="edge1" class="edge">
<title>Bar:p1&#45;&gt;Foo:data0</title>
<path fill="none" stroke="black" d="M92,-128C105.84,-128 109.1,-138.77 118.15,-143.65"/>
<polygon fill="black" stroke="black" points="117.46,-147.08 128,-146 119.09,-140.27 117.46,-147.08"/>
</g>
<!-- Bar&#45;&gt;Foo -->
<g id="edge2" class="edge">
<title>Bar:p2&#45;&gt;Foo:data1</title>
<path fill="none" stroke="black" d="M92,-105C104.5,-105 109.26,-110.17 118.01,-112.67"/>
<polygon fill="black" stroke="black" points="117.63,-116.15 128,-114 118.55,-109.21 117.63,-116.15"/>
</g>
<!-- Bar&#45;&gt;Foo -->
<g id="edge3" class="edge">
<title>Bar:p3&#45;&gt;Foo:data2</title>
<path fill="none" stroke="black" d="M92,-82C104,-82 109.25,-82 117.88,-82"/>
<polygon fill="black" stroke="black" points="118,-85.5 128,-82 118,-78.5 118,-85.5"/>
</g>
<!-- Bar&#45;&gt;Foo -->
<g id="edge4" class="edge">
<title>Bar:p4&#45;&gt;Foo:data3</title>
<path fill="none" stroke="black" d="M92,-59C104.58,-59 109.23,-53.26 117.97,-50.48"/>
<polygon fill="black" stroke="black" points="118.62,-53.92 128,-49 117.6,-46.99 118.62,-53.92"/>
</g>
<!-- Bar&#45;&gt;Foo -->
<g id="edge5" class="edge">
<title>Bar:p5&#45;&gt;Foo:data4</title>
<path fill="none" stroke="black" d="M92,-36C105.99,-36 109.05,-24.63 118.09,-19.48"/>
<polygon fill="black" stroke="black" points="119.15,-22.83 128,-17 117.45,-16.04 119.15,-22.83"/>
</g>
<!-- Bew -->
<g id="node3" class="node">
<title>Bew</title>
<polygon fill="none" stroke="black" points="433,-62.5 433,-177.5 575,-177.5 575,-62.5 433,-62.5"/>
<text text-anchor="middle" x="457" y="-162.3" font-family="Times New Roman,serif" font-size="14.00">clk</text>
<polyline fill="none" stroke="black" points="433,-154.5 481,-154.5"/>
<text text-anchor="middle" x="457" y="-139.3" font-family="Times New Roman,serif" font-size="14.00">syn</text>
<polyline fill="none" stroke="black" points="433,-131.5 481,-131.5"/>
<text text-anchor="middle" x="457" y="-116.3" font-family="Times New Roman,serif" font-size="14.00">mux0</text>
<polyline fill="none" stroke="black" points="433,-108.5 481,-108.5"/>
<text text-anchor="middle" x="457" y="-93.3" font-family="Times New Roman,serif" font-size="14.00">mux1</text>
<polyline fill="none" stroke="black" points="433,-85.5 481,-85.5"/>
<text text-anchor="middle" x="457" y="-70.3" font-family="Times New Roman,serif" font-size="14.00">signal</text>
<polyline fill="none" stroke="black" points="481,-62.5 481,-177.5"/>
<text text-anchor="middle" x="507.5" y="-116.3" font-family="Times New Roman,serif" font-size="14.00">&quot;Bew&quot;</text>
<polyline fill="none" stroke="black" points="534,-62.5 534,-177.5"/>
<text text-anchor="middle" x="554.5" y="-154.8" font-family="Times New Roman,serif" font-size="14.00">out0</text>
<polyline fill="none" stroke="black" points="534,-139.5 575,-139.5"/>
<text text-anchor="middle" x="554.5" y="-116.8" font-family="Times New Roman,serif" font-size="14.00">out1</text>
<polyline fill="none" stroke="black" points="534,-101.5 575,-101.5"/>
<text text-anchor="middle" x="554.5" y="-78.3" font-family="Times New Roman,serif" font-size="14.00">out2</text>
</g>
<!-- Foo&#45;&gt;Bew -->
<g id="edge6" class="edge">
<title>Foo:out0&#45;&gt;Bew:mux0</title>
<path fill="none" stroke="black" d="M268,-150C339.04,-150 356.84,-122.75 422.89,-120.19"/>
<polygon fill="black" stroke="black" points="423.07,-123.69 433,-120 422.94,-116.69 423.07,-123.69"/>
</g>
<!-- Foo&#45;&gt;Bew -->
<g id="edge7" class="edge">
<title>Foo:out1&#45;&gt;Bew:mux1</title>
<path fill="none" stroke="black" d="M268,-127C284.39,-127 287.92,-122.16 304,-119 357.62,-108.48 373.01,-98.31 422.9,-97.12"/>
<polygon fill="black" stroke="black" points="423.04,-100.62 433,-97 422.96,-93.62 423.04,-100.62"/>
</g>
<!-- Gate -->
<g id="node4" class="node">
<title>Gate</title>
<polygon fill="none" stroke="black" points="304,-1 304,-47 397,-47 397,-1 304,-1"/>
<text text-anchor="middle" x="316" y="-31.8" font-family="Times New Roman,serif" font-size="14.00">a</text>
<polyline fill="none" stroke="black" points="304,-24 328,-24"/>
<text text-anchor="middle" x="316" y="-8.8" font-family="Times New Roman,serif" font-size="14.00">b</text>
<polyline fill="none" stroke="black" points="328,-1 328,-47"/>
<text text-anchor="middle" x="346.5" y="-20.3" font-family="Times New Roman,serif" font-size="14.00">OR</text>
<polyline fill="none" stroke="black" points="365,-1 365,-47"/>
<text text-anchor="middle" x="381" y="-20.3" font-family="Times New Roman,serif" font-size="14.00">a|b</text>
</g>
<!-- Foo&#45;&gt;Gate -->
<g id="edge9" class="edge">
<title>Foo:hi&#45;&gt;Gate:a</title>
<path fill="none" stroke="black" d="M268,-35C280,-35 285.25,-35.56 293.87,-35.84"/>
<polygon fill="black" stroke="black" points="293.95,-39.35 304,-36 294.06,-32.35 293.95,-39.35"/>
</g>
<!-- Foo&#45;&gt;Gate -->
<g id="edge10" class="edge">
<title>Foo:lo&#45;&gt;Gate:b</title>
<path fill="none" stroke="black" d="M268,-12C280,-12 285.25,-12 293.88,-12"/>
<polygon fill="black" stroke="black" points="294,-15.5 304,-12 294,-8.5 294,-15.5"/>
</g>
<!-- Bew&#45;&gt;Foo -->
<g id="edge8" class="edge">
<title>Bew:clk&#45;&gt;Foo:ex0</title>
<path fill="none" stroke="black" d="M433,-166C375.17,-166 349.59,-184.57 304,-149 272.92,-124.75 304.33,-69.72 278.12,-59.61"/>
<polygon fill="black" stroke="black" points="278.43,-56.12 268,-58 277.33,-63.03 278.43,-56.12"/>
</g>
<!-- Gate&#45;&gt;Bew -->
<g id="edge11" class="edge">
<title>Gate:ab&#45;&gt;Bew:signal</title>
<path fill="none" stroke="black" d="M381.5,-48C381.5,-70.24 400.95,-73.46 422.83,-73.92"/>
<polygon fill="black" stroke="black" points="422.97,-77.42 433,-74 423.03,-70.42 422.97,-77.42"/>
</g>
</g>
</svg>
