<?xml version="1.0" encoding="UTF-8" standalone="no"?>
<!DOCTYPE svg PUBLIC "-//W3C//DTD SVG 1.1//EN"
 "http://www.w3.org/Graphics/SVG/1.1/DTD/svg11.dtd">
<!-- Generated by graphviz version 5.0.1 (20220820.1526)
 -->
<!-- Title: D Pages: 1 -->
<svg width="1796pt" height="548pt"
 viewBox="0.00 0.00 1796.00 548.00" xmlns="http://www.w3.org/2000/svg" xmlns:xlink="http://www.w3.org/1999/xlink">
<g id="graph0" class="graph" transform="scale(1 1) rotate(0) translate(4 544)">
<title>D</title>
<polygon fill="white" stroke="none" points="-4,4 -4,-544 1792,-544 1792,4 -4,4"/>
<!-- X -->
<g id="node1" class="node">
<title>X</title>
<ellipse fill="none" stroke="black" cx="874" cy="-522" rx="27" ry="18"/>
<text text-anchor="middle" x="874" y="-518.3" font-family="Times New Roman,serif" font-size="14.00">X</text>
</g>
<!-- A -->
<g id="node3" class="node">
<title>A</title>
<ellipse fill="none" stroke="black" cx="929" cy="-450" rx="27" ry="18"/>
<text text-anchor="middle" x="929" y="-446.3" font-family="Times New Roman,serif" font-size="14.00">A</text>
</g>
<!-- X&#45;&gt;A -->
<g id="edge1" class="edge">
<title>X&#45;&gt;A</title>
<path fill="none" stroke="black" d="M885.93,-505.81C893.21,-496.55 902.66,-484.52 910.85,-474.09"/>
<polygon fill="black" stroke="black" points="913.66,-476.18 917.09,-466.16 908.16,-471.86 913.66,-476.18"/>
</g>
<!-- B -->
<g id="node4" class="node">
<title>B</title>
<ellipse fill="none" stroke="black" cx="875" cy="-234" rx="27" ry="18"/>
<text text-anchor="middle" x="875" y="-230.3" font-family="Times New Roman,serif" font-size="14.00">B</text>
</g>
<!-- X&#45;&gt;B -->
<g id="edge2" class="edge">
<title>X&#45;&gt;B</title>
<path fill="none" stroke="black" d="M866.3,-504.7C853.56,-475.8 830.24,-413.57 838,-360 843.08,-324.96 855.77,-286.06 864.87,-261.11"/>
<polygon fill="black" stroke="black" points="868.19,-262.23 868.4,-251.64 861.63,-259.79 868.19,-262.23"/>
</g>
<!-- C -->
<g id="node5" class="node">
<title>C</title>
<ellipse fill="none" stroke="black" cx="985" cy="-234" rx="27" ry="18"/>
<text text-anchor="middle" x="985" y="-230.3" font-family="Times New Roman,serif" font-size="14.00">C</text>
</g>
<!-- X&#45;&gt;C -->
<g id="edge3" class="edge">
<title>X&#45;&gt;C</title>
<path fill="none" stroke="black" d="M898.32,-513.57C919.51,-505.77 949.24,-491.33 965,-468 1007.8,-404.64 998.45,-308.4 990.52,-261.95"/>
<polygon fill="black" stroke="black" points="993.95,-261.26 988.72,-252.04 987.06,-262.51 993.95,-261.26"/>
</g>
<!-- D -->
<g id="node6" class="node">
<title>D</title>
<ellipse fill="none" stroke="black" cx="1057" cy="-234" rx="27" ry="18"/>
<text text-anchor="middle" x="1057" y="-230.3" font-family="Times New Roman,serif" font-size="14.00">D</text>
</g>
<!-- X&#45;&gt;D -->
<g id="edge4" class="edge">
<title>X&#45;&gt;D</title>
<path fill="none" stroke="black" d="M899.24,-515.56C924.91,-508.74 964.06,-494.57 987,-468 1039.1,-407.63 1052.43,-309.58 1055.83,-262.26"/>
<polygon fill="black" stroke="black" points="1059.33,-262.37 1056.46,-252.17 1052.35,-261.93 1059.33,-262.37"/>
</g>
<!-- E -->
<g id="node7" class="node">
<title>E</title>
<ellipse fill="none" stroke="black" cx="1129" cy="-234" rx="27" ry="18"/>
<text text-anchor="middle" x="1129" y="-230.3" font-family="Times New Roman,serif" font-size="14.00">E</text>
</g>
<!-- X&#45;&gt;E -->
<g id="edge5" class="edge">
<title>X&#45;&gt;E</title>
<path fill="none" stroke="black" d="M900.05,-516.96C930.45,-511.03 980.67,-497.32 1013,-468 1076.64,-410.29 1109.73,-309.79 1122.55,-261.88"/>
<polygon fill="black" stroke="black" points="1126,-262.52 1125.12,-251.96 1119.23,-260.76 1126,-262.52"/>
</g>
<!-- F -->
<g id="node8" class="node">
<title>F</title>
<ellipse fill="none" stroke="black" cx="1201" cy="-234" rx="27" ry="18"/>
<text text-anchor="middle" x="1201" y="-230.3" font-family="Times New Roman,serif" font-size="14.00">F</text>
</g>
<!-- X&#45;&gt;F -->
<g id="edge6" class="edge">
<title>X&#45;&gt;F</title>
<path fill="none" stroke="black" d="M900.57,-518.01C935.86,-512.92 998.78,-499.83 1042,-468 1117.66,-412.29 1169.22,-309.22 1190.3,-261.06"/>
<polygon fill="black" stroke="black" points="1193.61,-262.23 1194.34,-251.66 1187.18,-259.47 1193.61,-262.23"/>
</g>
<!-- G -->
<g id="node9" class="node">
<title>G</title>
<ellipse fill="none" stroke="black" cx="549" cy="-234" rx="27" ry="18"/>
<text text-anchor="middle" x="549" y="-230.3" font-family="Times New Roman,serif" font-size="14.00">G</text>
</g>
<!-- X&#45;&gt;G -->
<g id="edge7" class="edge">
<title>X&#45;&gt;G</title>
<path fill="none" stroke="black" d="M849.64,-513.84C823.96,-505.54 783.16,-490.09 753,-468 669.24,-406.64 595.76,-305.26 564.71,-259.16"/>
<polygon fill="black" stroke="black" points="567.54,-257.08 559.08,-250.7 561.71,-260.96 567.54,-257.08"/>
</g>
<!-- H -->
<g id="node10" class="node">
<title>H</title>
<ellipse fill="none" stroke="black" cx="693" cy="-234" rx="27" ry="18"/>
<text text-anchor="middle" x="693" y="-230.3" font-family="Times New Roman,serif" font-size="14.00">H</text>
</g>
<!-- X&#45;&gt;H -->
<g id="edge8" class="edge">
<title>X&#45;&gt;H</title>
<path fill="none" stroke="black" d="M857.27,-507.32C845.63,-497.25 830.23,-482.78 819,-468 766.62,-399.07 723.14,-305.51 703.79,-260.83"/>
<polygon fill="black" stroke="black" points="706.98,-259.38 699.83,-251.56 700.54,-262.13 706.98,-259.38"/>
</g>
<!-- I -->
<g id="node11" class="node">
<title>I</title>
<ellipse fill="none" stroke="black" cx="765" cy="-234" rx="27" ry="18"/>
<text text-anchor="middle" x="765" y="-230.3" font-family="Times New Roman,serif" font-size="14.00">I</text>
</g>
<!-- X&#45;&gt;I -->
<g id="edge9" class="edge">
<title>X&#45;&gt;I</title>
<path fill="none" stroke="black" d="M861.68,-505.51C854.04,-495.31 844.49,-481.42 838,-468 803.75,-397.13 780.78,-306.48 770.74,-262.03"/>
<polygon fill="black" stroke="black" points="774.11,-261.03 768.53,-252.02 767.27,-262.54 774.11,-261.03"/>
</g>
<!-- J -->
<g id="node12" class="node">
<title>J</title>
<ellipse fill="none" stroke="black" cx="621" cy="-234" rx="27" ry="18"/>
<text text-anchor="middle" x="621" y="-230.3" font-family="Times New Roman,serif" font-size="14.00">J</text>
</g>
<!-- X&#45;&gt;J -->
<g id="edge10" class="edge">
<title>X&#45;&gt;J</title>
<path fill="none" stroke="black" d="M853.06,-510.49C835.31,-500.94 809.81,-485.68 791,-468 721.51,-402.69 661.32,-305.6 635.06,-260.16"/>
<polygon fill="black" stroke="black" points="637.98,-258.22 629.98,-251.28 631.91,-261.69 637.98,-258.22"/>
</g>
<!-- Z -->
<g id="node26" class="node">
<title>Z</title>
<ellipse fill="none" stroke="black" cx="909" cy="-18" rx="27" ry="18"/>
<text text-anchor="middle" x="909" y="-14.3" font-family="Times New Roman,serif" font-size="14.00">Z</text>
</g>
<!-- X&#45;&gt;Z -->
<g id="edge171" class="edge">
<title>X&#45;&gt;Z</title>
<path fill="none" stroke="black" d="M846.83,-520.64C713.23,-518.69 129.54,-507.94 60,-468 18.63,-444.24 0,-426.7 0,-379 0,-379 0,-379 0,-161 0,-71.24 700.89,-29.63 871.77,-20.81"/>
<polygon fill="black" stroke="black" points="871.99,-24.31 881.8,-20.3 871.63,-17.32 871.99,-24.31"/>
</g>
<!-- Y -->
<g id="node2" class="node">
<title>Y</title>
<ellipse fill="none" stroke="black" cx="929" cy="-306" rx="27" ry="18"/>
<text text-anchor="middle" x="929" y="-302.3" font-family="Times New Roman,serif" font-size="14.00">Y</text>
</g>
<!-- Y&#45;&gt;A -->
<g id="edge11" class="edge">
<title>Y&#45;&gt;A</title>
<path fill="none" stroke="black" d="M929,-324.19C929,-348.42 929,-392.89 929,-421.68"/>
<polygon fill="black" stroke="black" points="925.5,-421.87 929,-431.87 932.5,-421.87 925.5,-421.87"/>
</g>
<!-- Y&#45;&gt;B -->
<g id="edge12" class="edge">
<title>Y&#45;&gt;B</title>
<path fill="none" stroke="black" d="M917.02,-289.46C910.02,-280.4 901.06,-268.79 893.21,-258.61"/>
<polygon fill="black" stroke="black" points="895.83,-256.27 886.95,-250.49 890.29,-260.55 895.83,-256.27"/>
</g>
<!-- Y&#45;&gt;C -->
<g id="edge13" class="edge">
<title>Y&#45;&gt;C</title>
<path fill="none" stroke="black" d="M941.15,-289.81C948.56,-280.55 958.18,-268.52 966.52,-258.09"/>
<polygon fill="black" stroke="black" points="969.36,-260.15 972.87,-250.16 963.89,-255.78 969.36,-260.15"/>
</g>
<!-- Y&#45;&gt;D -->
<g id="edge14" class="edge">
<title>Y&#45;&gt;D</title>
<path fill="none" stroke="black" d="M949.28,-293.91C970.44,-282.34 1003.81,-264.09 1027.8,-250.97"/>
<polygon fill="black" stroke="black" points="1029.72,-253.91 1036.81,-246.04 1026.36,-247.77 1029.72,-253.91"/>
</g>
<!-- Y&#45;&gt;E -->
<g id="edge15" class="edge">
<title>Y&#45;&gt;E</title>
<path fill="none" stroke="black" d="M953.52,-298.15C985.89,-288.86 1044.45,-271.22 1093,-252 1094.83,-251.28 1096.7,-250.5 1098.58,-249.7"/>
<polygon fill="black" stroke="black" points="1100.19,-252.81 1107.88,-245.53 1097.32,-246.43 1100.19,-252.81"/>
</g>
<!-- Y&#45;&gt;F -->
<g id="edge16" class="edge">
<title>Y&#45;&gt;F</title>
<path fill="none" stroke="black" d="M955.01,-301.09C999.04,-294.04 1090.74,-277.52 1165,-252 1166.91,-251.34 1168.86,-250.61 1170.8,-249.84"/>
<polygon fill="black" stroke="black" points="1172.6,-252.87 1180.38,-245.69 1169.82,-246.45 1172.6,-252.87"/>
</g>
<!-- Y&#45;&gt;G -->
<g id="edge17" class="edge">
<title>Y&#45;&gt;G</title>
<path fill="none" stroke="black" d="M902.09,-303.49C843.35,-299.64 699.7,-287.11 585,-252 583.07,-251.41 581.11,-250.73 579.15,-249.99"/>
<polygon fill="black" stroke="black" points="580.11,-246.6 569.53,-245.94 577.39,-253.05 580.11,-246.6"/>
</g>
<!-- Y&#45;&gt;H -->
<g id="edge18" class="edge">
<title>Y&#45;&gt;H</title>
<path fill="none" stroke="black" d="M903.6,-299.83C865.18,-291.66 790.24,-274.36 729,-252 727.15,-251.32 725.27,-250.59 723.38,-249.81"/>
<polygon fill="black" stroke="black" points="724.61,-246.53 714.05,-245.72 721.8,-252.94 724.61,-246.53"/>
</g>
<!-- Y&#45;&gt;I -->
<g id="edge19" class="edge">
<title>Y&#45;&gt;I</title>
<path fill="none" stroke="black" d="M906.88,-295.56C878.52,-283.45 829.13,-262.37 796.75,-248.55"/>
<polygon fill="black" stroke="black" points="797.86,-245.22 787.29,-244.51 795.11,-251.66 797.86,-245.22"/>
</g>
<!-- Y&#45;&gt;J -->
<g id="edge20" class="edge">
<title>Y&#45;&gt;J</title>
<path fill="none" stroke="black" d="M902.57,-302.07C853.32,-296.12 744.55,-280.7 657,-252 655.08,-251.37 653.13,-250.66 651.18,-249.9"/>
<polygon fill="black" stroke="black" points="652.15,-246.51 641.58,-245.79 649.39,-252.95 652.15,-246.51"/>
</g>
<!-- Y&#45;&gt;Z -->
<g id="edge172" class="edge">
<title>Y&#45;&gt;Z</title>
<path fill="none" stroke="black" d="M956.1,-305.54C1034.6,-306.45 1259.49,-304.37 1305,-252 1417.49,-122.54 1061.68,-46.18 944.86,-25.05"/>
<polygon fill="black" stroke="black" points="945.41,-21.59 934.95,-23.29 944.18,-28.49 945.41,-21.59"/>
</g>
<!-- K -->
<g id="node13" class="node">
<title>K</title>
<ellipse fill="none" stroke="black" cx="874" cy="-378" rx="27" ry="18"/>
<text text-anchor="middle" x="874" y="-374.3" font-family="Times New Roman,serif" font-size="14.00">K</text>
</g>
<!-- A&#45;&gt;K -->
<g id="edge21" class="edge">
<title>A&#45;&gt;K</title>
<path fill="none" stroke="black" d="M917.07,-433.81C909.79,-424.55 900.34,-412.52 892.15,-402.09"/>
<polygon fill="black" stroke="black" points="894.84,-399.86 885.91,-394.16 889.34,-404.18 894.84,-399.86"/>
</g>
<!-- L -->
<g id="node14" class="node">
<title>L</title>
<ellipse fill="none" stroke="black" cx="1125" cy="-162" rx="27" ry="18"/>
<text text-anchor="middle" x="1125" y="-158.3" font-family="Times New Roman,serif" font-size="14.00">L</text>
</g>
<!-- A&#45;&gt;L -->
<g id="edge22" class="edge">
<title>A&#45;&gt;L</title>
<path fill="none" stroke="black" d="M955.74,-446.81C1020.93,-441.09 1186.16,-424.15 1233,-396 1267.75,-375.12 1273.49,-361.45 1289,-324 1307.43,-279.5 1327.41,-254.14 1298,-216 1259.55,-166.15 1220.16,-201.53 1161,-180 1159.15,-179.33 1157.26,-178.59 1155.38,-177.82"/>
<polygon fill="black" stroke="black" points="1156.61,-174.54 1146.04,-173.73 1153.8,-180.95 1156.61,-174.54"/>
</g>
<!-- M -->
<g id="node15" class="node">
<title>M</title>
<ellipse fill="none" stroke="black" cx="1197" cy="-162" rx="27" ry="18"/>
<text text-anchor="middle" x="1197" y="-158.3" font-family="Times New Roman,serif" font-size="14.00">M</text>
</g>
<!-- A&#45;&gt;M -->
<g id="edge23" class="edge">
<title>A&#45;&gt;M</title>
<path fill="none" stroke="black" d="M955.97,-447.65C1026.61,-443.66 1215.1,-430.02 1266,-396 1335.34,-349.66 1364.74,-285.74 1319,-216 1313.76,-208 1264.22,-188.16 1229.9,-175.16"/>
<polygon fill="black" stroke="black" points="1230.84,-171.77 1220.24,-171.52 1228.37,-178.32 1230.84,-171.77"/>
</g>
<!-- N -->
<g id="node16" class="node">
<title>N</title>
<ellipse fill="none" stroke="black" cx="1053" cy="-162" rx="27" ry="18"/>
<text text-anchor="middle" x="1053" y="-158.3" font-family="Times New Roman,serif" font-size="14.00">N</text>
</g>
<!-- A&#45;&gt;N -->
<g id="edge24" class="edge">
<title>A&#45;&gt;N</title>
<path fill="none" stroke="black" d="M956.03,-449.74C1025.56,-449.94 1209.2,-439.19 1267,-324 1288.6,-280.95 1306.67,-253.14 1276,-216 1222.11,-150.74 1169.45,-206.28 1089,-180 1087.08,-179.37 1085.13,-178.67 1083.17,-177.91"/>
<polygon fill="black" stroke="black" points="1084.15,-174.52 1073.58,-173.8 1081.39,-180.95 1084.15,-174.52"/>
</g>
<!-- O -->
<g id="node17" class="node">
<title>O</title>
<ellipse fill="none" stroke="black" cx="693" cy="-162" rx="27" ry="18"/>
<text text-anchor="middle" x="693" y="-158.3" font-family="Times New Roman,serif" font-size="14.00">O</text>
</g>
<!-- A&#45;&gt;O -->
<g id="edge25" class="edge">
<title>A&#45;&gt;O</title>
<path fill="none" stroke="black" d="M901.86,-449.45C832.47,-449.79 643.71,-445.71 497,-396 377.38,-355.46 314.73,-361.63 252,-252 244.05,-238.11 241.2,-227.8 252,-216 313,-149.34 569.8,-203.66 657,-180 658.95,-179.47 660.93,-178.84 662.89,-178.14"/>
<polygon fill="black" stroke="black" points="664.62,-181.22 672.54,-174.18 661.96,-174.74 664.62,-181.22"/>
</g>
<!-- P -->
<g id="node18" class="node">
<title>P</title>
<ellipse fill="none" stroke="black" cx="909" cy="-162" rx="27" ry="18"/>
<text text-anchor="middle" x="909" y="-158.3" font-family="Times New Roman,serif" font-size="14.00">P</text>
</g>
<!-- A&#45;&gt;P -->
<g id="edge26" class="edge">
<title>A&#45;&gt;P</title>
<path fill="none" stroke="black" d="M953.74,-442.36C1042.4,-417.47 1333.83,-325.5 1237,-216 1193.69,-167.02 1007.8,-198.19 945,-180 943.06,-179.44 941.09,-178.78 939.13,-178.06"/>
<polygon fill="black" stroke="black" points="940.08,-174.67 929.5,-174.05 937.39,-181.13 940.08,-174.67"/>
</g>
<!-- Q -->
<g id="node19" class="node">
<title>Q</title>
<ellipse fill="none" stroke="black" cx="765" cy="-162" rx="27" ry="18"/>
<text text-anchor="middle" x="765" y="-158.3" font-family="Times New Roman,serif" font-size="14.00">Q</text>
</g>
<!-- A&#45;&gt;Q -->
<g id="edge27" class="edge">
<title>A&#45;&gt;Q</title>
<path fill="none" stroke="black" d="M901.99,-447.57C847.02,-443.98 718.81,-432.11 618,-396 496.56,-352.5 430.75,-363.57 366,-252 311.28,-157.7 424.46,-264.29 729,-180 730.95,-179.46 732.92,-178.82 734.89,-178.12"/>
<polygon fill="black" stroke="black" points="736.62,-181.19 744.53,-174.14 733.95,-174.72 736.62,-181.19"/>
</g>
<!-- R -->
<g id="node20" class="node">
<title>R</title>
<ellipse fill="none" stroke="black" cx="621" cy="-162" rx="27" ry="18"/>
<text text-anchor="middle" x="621" y="-158.3" font-family="Times New Roman,serif" font-size="14.00">R</text>
</g>
<!-- A&#45;&gt;R -->
<g id="edge28" class="edge">
<title>A&#45;&gt;R</title>
<path fill="none" stroke="black" d="M902,-448C805.12,-444.18 475.57,-428.98 376,-396 258.64,-357.13 198.71,-359.7 138,-252 130.14,-238.06 127.32,-227.91 138,-216 167.66,-182.91 475.78,-168.38 583.82,-164.28"/>
<polygon fill="black" stroke="black" points="584.06,-167.77 593.93,-163.91 583.8,-160.78 584.06,-167.77"/>
</g>
<!-- S -->
<g id="node21" class="node">
<title>S</title>
<ellipse fill="none" stroke="black" cx="837" cy="-162" rx="27" ry="18"/>
<text text-anchor="middle" x="837" y="-158.3" font-family="Times New Roman,serif" font-size="14.00">S</text>
</g>
<!-- A&#45;&gt;S -->
<g id="edge29" class="edge">
<title>A&#45;&gt;S</title>
<path fill="none" stroke="black" d="M902.42,-446.61C823.9,-437.92 593.49,-400.16 513,-252 426.1,-92.04 500.23,-267.39 801,-180 802.94,-179.44 804.91,-178.78 806.87,-178.06"/>
<polygon fill="black" stroke="black" points="808.61,-181.12 816.5,-174.05 805.92,-174.66 808.61,-181.12"/>
</g>
<!-- T -->
<g id="node22" class="node">
<title>T</title>
<ellipse fill="none" stroke="black" cx="981" cy="-162" rx="27" ry="18"/>
<text text-anchor="middle" x="981" y="-158.3" font-family="Times New Roman,serif" font-size="14.00">T</text>
</g>
<!-- A&#45;&gt;T -->
<g id="edge30" class="edge">
<title>A&#45;&gt;T</title>
<path fill="none" stroke="black" d="M955.41,-445.41C996.49,-439.18 1077.57,-424.22 1141,-396 1193.37,-372.7 1216.98,-372.2 1248,-324 1265.56,-296.72 1257.32,-284.33 1260,-252 1261.32,-236.05 1270.45,-228.11 1260,-216 1224.34,-174.67 1069.25,-195.83 1017,-180 1015.07,-179.41 1013.1,-178.74 1011.14,-178.01"/>
<polygon fill="black" stroke="black" points="1012.1,-174.61 1001.53,-173.96 1009.39,-181.06 1012.1,-174.61"/>
</g>
<!-- B&#45;&gt;K -->
<g id="edge31" class="edge">
<title>B&#45;&gt;K</title>
<path fill="none" stroke="black" d="M874.88,-252.19C874.71,-276.42 874.4,-320.89 874.19,-349.68"/>
<polygon fill="black" stroke="black" points="870.69,-349.85 874.12,-359.87 877.69,-349.9 870.69,-349.85"/>
</g>
<!-- B&#45;&gt;L -->
<g id="edge32" class="edge">
<title>B&#45;&gt;L</title>
<path fill="none" stroke="black" d="M900.23,-227.05C952.9,-214.58 1071.15,-186.35 1089,-180 1090.9,-179.32 1092.84,-178.58 1094.79,-177.79"/>
<polygon fill="black" stroke="black" points="1096.6,-180.82 1104.36,-173.6 1093.79,-174.4 1096.6,-180.82"/>
</g>
<!-- B&#45;&gt;M -->
<g id="edge33" class="edge">
<title>B&#45;&gt;M</title>
<path fill="none" stroke="black" d="M899.93,-226.9C914.24,-223.49 932.58,-219.28 949,-216 1042.72,-197.29 1069.83,-208.67 1161,-180 1162.93,-179.39 1164.89,-178.7 1166.84,-177.96"/>
<polygon fill="black" stroke="black" points="1168.61,-181.01 1176.45,-173.88 1165.88,-174.57 1168.61,-181.01"/>
</g>
<!-- B&#45;&gt;N -->
<g id="edge34" class="edge">
<title>B&#45;&gt;N</title>
<path fill="none" stroke="black" d="M898.35,-224.96C926.69,-215.05 975.78,-197.39 1017,-180 1018.81,-179.23 1020.67,-178.43 1022.54,-177.6"/>
<polygon fill="black" stroke="black" points="1024.17,-180.7 1031.81,-173.37 1021.26,-174.34 1024.17,-180.7"/>
</g>
<!-- B&#45;&gt;O -->
<g id="edge35" class="edge">
<title>B&#45;&gt;O</title>
<path fill="none" stroke="black" d="M851.22,-225.13C822.11,-215.32 771.44,-197.68 729,-180 727.18,-179.24 725.32,-178.44 723.45,-177.62"/>
<polygon fill="black" stroke="black" points="724.73,-174.35 714.17,-173.4 721.83,-180.73 724.73,-174.35"/>
</g>
<!-- B&#45;&gt;P -->
<g id="edge36" class="edge">
<title>B&#45;&gt;P</title>
<path fill="none" stroke="black" d="M882.89,-216.76C886.9,-208.49 891.89,-198.23 896.42,-188.9"/>
<polygon fill="black" stroke="black" points="899.7,-190.16 900.92,-179.63 893.4,-187.1 899.7,-190.16"/>
</g>
<!-- B&#45;&gt;Q -->
<g id="edge37" class="edge">
<title>B&#45;&gt;Q</title>
<path fill="none" stroke="black" d="M855.84,-220.81C838.33,-209.67 812.24,-193.06 792.51,-180.5"/>
<polygon fill="black" stroke="black" points="794.26,-177.47 783.94,-175.05 790.5,-183.37 794.26,-177.47"/>
</g>
<!-- B&#45;&gt;R -->
<g id="edge38" class="edge">
<title>B&#45;&gt;R</title>
<path fill="none" stroke="black" d="M849.7,-227.15C796.25,-214.76 675.22,-186.44 657,-180 655.09,-179.33 653.15,-178.58 651.21,-177.8"/>
<polygon fill="black" stroke="black" points="652.2,-174.41 641.64,-173.62 649.4,-180.83 652.2,-174.41"/>
</g>
<!-- B&#45;&gt;S -->
<g id="edge39" class="edge">
<title>B&#45;&gt;S</title>
<path fill="none" stroke="black" d="M866.19,-216.76C861.58,-208.28 855.84,-197.71 850.68,-188.2"/>
<polygon fill="black" stroke="black" points="853.61,-186.27 845.77,-179.15 847.46,-189.61 853.61,-186.27"/>
</g>
<!-- B&#45;&gt;T -->
<g id="edge40" class="edge">
<title>B&#45;&gt;T</title>
<path fill="none" stroke="black" d="M893.46,-220.81C910.16,-209.78 934.95,-193.41 953.89,-180.9"/>
<polygon fill="black" stroke="black" points="955.98,-183.72 962.39,-175.29 952.12,-177.88 955.98,-183.72"/>
</g>
<!-- C&#45;&gt;K -->
<g id="edge41" class="edge">
<title>C&#45;&gt;K</title>
<path fill="none" stroke="black" d="M985.1,-252.06C984.38,-271.29 980.63,-302.66 965,-324 950.7,-343.52 926.87,-357.02 907.18,-365.51"/>
<polygon fill="black" stroke="black" points="905.85,-362.27 897.9,-369.28 908.49,-368.76 905.85,-362.27"/>
</g>
<!-- C&#45;&gt;L -->
<g id="edge42" class="edge">
<title>C&#45;&gt;L</title>
<path fill="none" stroke="black" d="M1005.96,-222.52C1029.57,-210.72 1068.13,-191.43 1094.95,-178.03"/>
<polygon fill="black" stroke="black" points="1096.52,-181.15 1103.9,-173.55 1093.39,-174.89 1096.52,-181.15"/>
</g>
<!-- C&#45;&gt;M -->
<g id="edge43" class="edge">
<title>C&#45;&gt;M</title>
<path fill="none" stroke="black" d="M1006.04,-222.25C1010.88,-220.01 1016.06,-217.78 1021,-216 1081.43,-194.19 1100.57,-201.81 1161,-180 1162.85,-179.33 1164.74,-178.6 1166.63,-177.83"/>
<polygon fill="black" stroke="black" points="1168.2,-180.96 1175.96,-173.75 1165.4,-174.55 1168.2,-180.96"/>
</g>
<!-- C&#45;&gt;N -->
<g id="edge44" class="edge">
<title>C&#45;&gt;N</title>
<path fill="none" stroke="black" d="M999.09,-218.5C1008.57,-208.73 1021.24,-195.69 1031.92,-184.7"/>
<polygon fill="black" stroke="black" points="1034.47,-187.1 1038.93,-177.49 1029.45,-182.22 1034.47,-187.1"/>
</g>
<!-- C&#45;&gt;O -->
<g id="edge45" class="edge">
<title>C&#45;&gt;O</title>
<path fill="none" stroke="black" d="M960.04,-227.07C945.71,-223.71 927.37,-219.5 911,-216 830.36,-198.77 807.32,-205.8 729,-180 727.08,-179.37 725.13,-178.66 723.18,-177.9"/>
<polygon fill="black" stroke="black" points="724.15,-174.51 713.58,-173.78 721.39,-180.94 724.15,-174.51"/>
</g>
<!-- C&#45;&gt;P -->
<g id="edge46" class="edge">
<title>C&#45;&gt;P</title>
<path fill="none" stroke="black" d="M969.62,-218.83C958.8,-208.87 944.14,-195.37 931.95,-184.14"/>
<polygon fill="black" stroke="black" points="934.08,-181.34 924.36,-177.14 929.34,-186.49 934.08,-181.34"/>
</g>
<!-- C&#45;&gt;Q -->
<g id="edge47" class="edge">
<title>C&#45;&gt;Q</title>
<path fill="none" stroke="black" d="M959.88,-227.13C924.07,-218.45 856.52,-200.95 801,-180 799.16,-179.3 797.28,-178.55 795.39,-177.77"/>
<polygon fill="black" stroke="black" points="796.64,-174.49 786.08,-173.64 793.8,-180.89 796.64,-174.49"/>
</g>
<!-- C&#45;&gt;R -->
<g id="edge48" class="edge">
<title>C&#45;&gt;R</title>
<path fill="none" stroke="black" d="M960.11,-226.72C945.8,-223.26 927.46,-219.05 911,-216 798.89,-195.22 766.22,-212.71 657,-180 655.06,-179.42 653.1,-178.75 651.14,-178.02"/>
<polygon fill="black" stroke="black" points="652.1,-174.63 641.52,-173.98 649.39,-181.08 652.1,-174.63"/>
</g>
<!-- C&#45;&gt;S -->
<g id="edge49" class="edge">
<title>C&#45;&gt;S</title>
<path fill="none" stroke="black" d="M963.48,-222.82C938.27,-210.9 896.32,-191.06 867.7,-177.52"/>
<polygon fill="black" stroke="black" points="869.08,-174.3 858.55,-173.19 866.09,-180.63 869.08,-174.3"/>
</g>
<!-- C&#45;&gt;T -->
<g id="edge50" class="edge">
<title>C&#45;&gt;T</title>
<path fill="none" stroke="black" d="M984.01,-215.7C983.57,-207.98 983.04,-198.71 982.55,-190.11"/>
<polygon fill="black" stroke="black" points="986.04,-189.89 981.98,-180.1 979.05,-190.29 986.04,-189.89"/>
</g>
<!-- D&#45;&gt;K -->
<g id="edge51" class="edge">
<title>D&#45;&gt;K</title>
<path fill="none" stroke="black" d="M1047.48,-250.98C1035.28,-270.36 1012.5,-303.02 986,-324 962.39,-342.69 931.11,-356.79 907.6,-365.73"/>
<polygon fill="black" stroke="black" points="906.23,-362.51 898.05,-369.24 908.65,-369.08 906.23,-362.51"/>
</g>
<!-- D&#45;&gt;L -->
<g id="edge52" class="edge">
<title>D&#45;&gt;L</title>
<path fill="none" stroke="black" d="M1071.09,-218.5C1080.57,-208.73 1093.24,-195.69 1103.92,-184.7"/>
<polygon fill="black" stroke="black" points="1106.47,-187.1 1110.93,-177.49 1101.45,-182.22 1106.47,-187.1"/>
</g>
<!-- D&#45;&gt;M -->
<g id="edge53" class="edge">
<title>D&#45;&gt;M</title>
<path fill="none" stroke="black" d="M1077.96,-222.52C1101.57,-210.72 1140.13,-191.43 1166.95,-178.03"/>
<polygon fill="black" stroke="black" points="1168.52,-181.15 1175.9,-173.55 1165.39,-174.89 1168.52,-181.15"/>
</g>
<!-- D&#45;&gt;N -->
<g id="edge54" class="edge">
<title>D&#45;&gt;N</title>
<path fill="none" stroke="black" d="M1056.01,-215.7C1055.57,-207.98 1055.04,-198.71 1054.55,-190.11"/>
<polygon fill="black" stroke="black" points="1058.04,-189.89 1053.98,-180.1 1051.05,-190.29 1058.04,-189.89"/>
</g>
<!-- D&#45;&gt;O -->
<g id="edge55" class="edge">
<title>D&#45;&gt;O</title>
<path fill="none" stroke="black" d="M1036.5,-221.95C1031.54,-219.66 1026.18,-217.5 1021,-216 895.4,-179.62 854.6,-216.38 729,-180 727.06,-179.44 725.09,-178.78 723.13,-178.06"/>
<polygon fill="black" stroke="black" points="724.08,-174.67 713.5,-174.05 721.39,-181.13 724.08,-174.67"/>
</g>
<!-- D&#45;&gt;P -->
<g id="edge56" class="edge">
<title>D&#45;&gt;P</title>
<path fill="none" stroke="black" d="M1035.48,-222.82C1010.27,-210.9 968.32,-191.06 939.7,-177.52"/>
<polygon fill="black" stroke="black" points="941.08,-174.3 930.55,-173.19 938.09,-180.63 941.08,-174.3"/>
</g>
<!-- D&#45;&gt;Q -->
<g id="edge57" class="edge">
<title>D&#45;&gt;Q</title>
<path fill="none" stroke="black" d="M1036.46,-222.1C1031.5,-219.81 1026.15,-217.6 1021,-216 926.4,-186.56 895.6,-209.44 801,-180 799.07,-179.4 797.11,-178.71 795.15,-177.97"/>
<polygon fill="black" stroke="black" points="796.12,-174.58 785.54,-173.9 793.39,-181.02 796.12,-174.58"/>
</g>
<!-- D&#45;&gt;R -->
<g id="edge58" class="edge">
<title>D&#45;&gt;R</title>
<path fill="none" stroke="black" d="M1036.53,-221.86C1031.57,-219.58 1026.2,-217.44 1021,-216 864.32,-172.66 813.68,-223.34 657,-180 655.05,-179.46 653.08,-178.82 651.11,-178.12"/>
<polygon fill="black" stroke="black" points="652.05,-174.72 641.47,-174.14 649.38,-181.19 652.05,-174.72"/>
</g>
<!-- D&#45;&gt;S -->
<g id="edge59" class="edge">
<title>D&#45;&gt;S</title>
<path fill="none" stroke="black" d="M1036.36,-222.38C1031.41,-220.08 1026.08,-217.8 1021,-216 957.18,-193.43 936.82,-202.57 873,-180 871.09,-179.33 869.15,-178.58 867.21,-177.8"/>
<polygon fill="black" stroke="black" points="868.2,-174.41 857.64,-173.62 865.4,-180.83 868.2,-174.41"/>
</g>
<!-- D&#45;&gt;T -->
<g id="edge60" class="edge">
<title>D&#45;&gt;T</title>
<path fill="none" stroke="black" d="M1041.62,-218.83C1030.8,-208.87 1016.14,-195.37 1003.95,-184.14"/>
<polygon fill="black" stroke="black" points="1006.08,-181.34 996.36,-177.14 1001.34,-186.49 1006.08,-181.34"/>
</g>
<!-- E&#45;&gt;K -->
<g id="edge61" class="edge">
<title>E&#45;&gt;K</title>
<path fill="none" stroke="black" d="M1114.18,-249.35C1093.74,-268.52 1055.08,-302.54 1017,-324 982.03,-343.71 938.32,-358.66 908.49,-367.58"/>
<polygon fill="black" stroke="black" points="907.17,-364.32 898.55,-370.48 909.14,-371.04 907.17,-364.32"/>
</g>
<!-- E&#45;&gt;L -->
<g id="edge62" class="edge">
<title>E&#45;&gt;L</title>
<path fill="none" stroke="black" d="M1128.01,-215.7C1127.57,-207.98 1127.04,-198.71 1126.55,-190.11"/>
<polygon fill="black" stroke="black" points="1130.04,-189.89 1125.98,-180.1 1123.05,-190.29 1130.04,-189.89"/>
</g>
<!-- E&#45;&gt;M -->
<g id="edge63" class="edge">
<title>E&#45;&gt;M</title>
<path fill="none" stroke="black" d="M1143.09,-218.5C1152.57,-208.73 1165.24,-195.69 1175.92,-184.7"/>
<polygon fill="black" stroke="black" points="1178.47,-187.1 1182.93,-177.49 1173.45,-182.22 1178.47,-187.1"/>
</g>
<!-- E&#45;&gt;N -->
<g id="edge64" class="edge">
<title>E&#45;&gt;N</title>
<path fill="none" stroke="black" d="M1113.62,-218.83C1102.8,-208.87 1088.14,-195.37 1075.95,-184.14"/>
<polygon fill="black" stroke="black" points="1078.08,-181.34 1068.36,-177.14 1073.34,-186.49 1078.08,-181.34"/>
</g>
<!-- E&#45;&gt;O -->
<g id="edge65" class="edge">
<title>E&#45;&gt;O</title>
<path fill="none" stroke="black" d="M1108.53,-221.86C1103.57,-219.58 1098.2,-217.44 1093,-216 936.32,-172.66 885.68,-223.34 729,-180 727.05,-179.46 725.08,-178.82 723.11,-178.12"/>
<polygon fill="black" stroke="black" points="724.05,-174.72 713.47,-174.14 721.38,-181.19 724.05,-174.72"/>
</g>
<!-- E&#45;&gt;P -->
<g id="edge66" class="edge">
<title>E&#45;&gt;P</title>
<path fill="none" stroke="black" d="M1108.36,-222.38C1103.41,-220.08 1098.08,-217.8 1093,-216 1029.18,-193.43 1008.82,-202.57 945,-180 943.09,-179.33 941.15,-178.58 939.21,-177.8"/>
<polygon fill="black" stroke="black" points="940.2,-174.41 929.64,-173.62 937.4,-180.83 940.2,-174.41"/>
</g>
<!-- E&#45;&gt;Q -->
<g id="edge67" class="edge">
<title>E&#45;&gt;Q</title>
<path fill="none" stroke="black" d="M1108.5,-221.95C1103.54,-219.66 1098.18,-217.5 1093,-216 967.4,-179.62 926.6,-216.38 801,-180 799.06,-179.44 797.09,-178.78 795.13,-178.06"/>
<polygon fill="black" stroke="black" points="796.08,-174.67 785.5,-174.05 793.39,-181.13 796.08,-174.67"/>
</g>
<!-- E&#45;&gt;R -->
<g id="edge68" class="edge">
<title>E&#45;&gt;R</title>
<path fill="none" stroke="black" d="M1108.54,-221.8C1103.58,-219.52 1098.21,-217.4 1093,-216 905.19,-165.68 844.81,-230.32 657,-180 655.05,-179.48 653.07,-178.85 651.1,-178.15"/>
<polygon fill="black" stroke="black" points="652.04,-174.75 641.46,-174.2 649.38,-181.23 652.04,-174.75"/>
</g>
<!-- E&#45;&gt;S -->
<g id="edge69" class="edge">
<title>E&#45;&gt;S</title>
<path fill="none" stroke="black" d="M1108.46,-222.1C1103.5,-219.81 1098.15,-217.6 1093,-216 998.4,-186.56 967.6,-209.44 873,-180 871.07,-179.4 869.11,-178.71 867.15,-177.97"/>
<polygon fill="black" stroke="black" points="868.12,-174.58 857.54,-173.9 865.39,-181.02 868.12,-174.58"/>
</g>
<!-- E&#45;&gt;T -->
<g id="edge70" class="edge">
<title>E&#45;&gt;T</title>
<path fill="none" stroke="black" d="M1107.48,-222.82C1082.27,-210.9 1040.32,-191.06 1011.7,-177.52"/>
<polygon fill="black" stroke="black" points="1013.08,-174.3 1002.55,-173.19 1010.09,-180.63 1013.08,-174.3"/>
</g>
<!-- F&#45;&gt;K -->
<g id="edge71" class="edge">
<title>F&#45;&gt;K</title>
<path fill="none" stroke="black" d="M1183.54,-247.87C1157.13,-266.82 1104.88,-302.35 1056,-324 1007.04,-345.68 946.8,-361.21 909.39,-369.65"/>
<polygon fill="black" stroke="black" points="908.48,-366.27 899.47,-371.84 909.99,-373.1 908.48,-366.27"/>
</g>
<!-- F&#45;&gt;L -->
<g id="edge72" class="edge">
<title>F&#45;&gt;L</title>
<path fill="none" stroke="black" d="M1185.62,-218.83C1174.8,-208.87 1160.14,-195.37 1147.95,-184.14"/>
<polygon fill="black" stroke="black" points="1150.08,-181.34 1140.36,-177.14 1145.34,-186.49 1150.08,-181.34"/>
</g>
<!-- F&#45;&gt;M -->
<g id="edge73" class="edge">
<title>F&#45;&gt;M</title>
<path fill="none" stroke="black" d="M1200.01,-215.7C1199.57,-207.98 1199.04,-198.71 1198.55,-190.11"/>
<polygon fill="black" stroke="black" points="1202.04,-189.89 1197.98,-180.1 1195.05,-190.29 1202.04,-189.89"/>
</g>
<!-- F&#45;&gt;N -->
<g id="edge74" class="edge">
<title>F&#45;&gt;N</title>
<path fill="none" stroke="black" d="M1179.48,-222.82C1154.27,-210.9 1112.32,-191.06 1083.7,-177.52"/>
<polygon fill="black" stroke="black" points="1085.08,-174.3 1074.55,-173.19 1082.09,-180.63 1085.08,-174.3"/>
</g>
<!-- F&#45;&gt;O -->
<g id="edge75" class="edge">
<title>F&#45;&gt;O</title>
<path fill="none" stroke="black" d="M1180.54,-221.8C1175.58,-219.52 1170.21,-217.4 1165,-216 977.19,-165.68 916.81,-230.32 729,-180 727.05,-179.48 725.07,-178.85 723.1,-178.15"/>
<polygon fill="black" stroke="black" points="724.04,-174.75 713.46,-174.2 721.38,-181.23 724.04,-174.75"/>
</g>
<!-- F&#45;&gt;P -->
<g id="edge76" class="edge">
<title>F&#45;&gt;P</title>
<path fill="none" stroke="black" d="M1180.46,-222.1C1175.5,-219.81 1170.15,-217.6 1165,-216 1070.4,-186.56 1039.6,-209.44 945,-180 943.07,-179.4 941.11,-178.71 939.15,-177.97"/>
<polygon fill="black" stroke="black" points="940.12,-174.58 929.54,-173.9 937.39,-181.02 940.12,-174.58"/>
</g>
<!-- F&#45;&gt;Q -->
<g id="edge77" class="edge">
<title>F&#45;&gt;Q</title>
<path fill="none" stroke="black" d="M1180.53,-221.86C1175.57,-219.58 1170.2,-217.44 1165,-216 1008.32,-172.66 957.68,-223.34 801,-180 799.05,-179.46 797.08,-178.82 795.11,-178.12"/>
<polygon fill="black" stroke="black" points="796.05,-174.72 785.47,-174.14 793.38,-181.19 796.05,-174.72"/>
</g>
<!-- F&#45;&gt;R -->
<g id="edge78" class="edge">
<title>F&#45;&gt;R</title>
<path fill="none" stroke="black" d="M1180.93,-221.93C1175.87,-219.59 1170.35,-217.4 1165,-216 946.03,-158.69 875.97,-237.31 657,-180 654.83,-179.43 652.63,-178.73 650.44,-177.95"/>
<polygon fill="black" stroke="black" points="651.64,-174.66 641.07,-174.07 648.97,-181.13 651.64,-174.66"/>
</g>
<!-- F&#45;&gt;S -->
<g id="edge79" class="edge">
<title>F&#45;&gt;S</title>
<path fill="none" stroke="black" d="M1180.5,-221.95C1175.54,-219.66 1170.18,-217.5 1165,-216 1039.4,-179.62 998.6,-216.38 873,-180 871.06,-179.44 869.09,-178.78 867.13,-178.06"/>
<polygon fill="black" stroke="black" points="868.08,-174.67 857.5,-174.05 865.39,-181.13 868.08,-174.67"/>
</g>
<!-- F&#45;&gt;T -->
<g id="edge80" class="edge">
<title>F&#45;&gt;T</title>
<path fill="none" stroke="black" d="M1180.36,-222.38C1175.41,-220.08 1170.08,-217.8 1165,-216 1101.18,-193.43 1080.82,-202.57 1017,-180 1015.09,-179.33 1013.15,-178.58 1011.21,-177.8"/>
<polygon fill="black" stroke="black" points="1012.2,-174.41 1001.64,-173.62 1009.4,-180.83 1012.2,-174.41"/>
</g>
<!-- G&#45;&gt;K -->
<g id="edge81" class="edge">
<title>G&#45;&gt;K</title>
<path fill="none" stroke="black" d="M566.61,-247.83C593.24,-266.74 645.89,-302.21 695,-324 743.06,-345.33 802.1,-360.91 838.9,-369.46"/>
<polygon fill="black" stroke="black" points="838.13,-372.88 848.66,-371.69 839.69,-366.05 838.13,-372.88"/>
</g>
<!-- G&#45;&gt;L -->
<g id="edge82" class="edge">
<title>G&#45;&gt;L</title>
<path fill="none" stroke="black" d="M569.07,-221.93C574.13,-219.59 579.65,-217.4 585,-216 802.24,-159.08 871.76,-236.92 1089,-180 1091.17,-179.43 1093.37,-178.73 1095.56,-177.95"/>
<polygon fill="black" stroke="black" points="1097.03,-181.13 1104.93,-174.07 1094.36,-174.66 1097.03,-181.13"/>
</g>
<!-- G&#45;&gt;M -->
<g id="edge83" class="edge">
<title>G&#45;&gt;M</title>
<path fill="none" stroke="black" d="M569.06,-221.9C574.12,-219.55 579.64,-217.38 585,-216 833.41,-152.09 912.59,-243.91 1161,-180 1163.18,-179.44 1165.38,-178.75 1167.57,-177.97"/>
<polygon fill="black" stroke="black" points="1169.03,-181.15 1176.94,-174.1 1166.36,-174.68 1169.03,-181.15"/>
</g>
<!-- G&#45;&gt;N -->
<g id="edge84" class="edge">
<title>G&#45;&gt;N</title>
<path fill="none" stroke="black" d="M569.46,-221.8C574.42,-219.52 579.79,-217.4 585,-216 771.08,-166.07 830.92,-229.93 1017,-180 1018.95,-179.48 1020.93,-178.85 1022.9,-178.15"/>
<polygon fill="black" stroke="black" points="1024.62,-181.23 1032.54,-174.2 1021.96,-174.75 1024.62,-181.23"/>
</g>
<!-- G&#45;&gt;O -->
<g id="edge85" class="edge">
<title>G&#45;&gt;O</title>
<path fill="none" stroke="black" d="M570.25,-222.67C594.6,-210.83 634.72,-191.33 662.43,-177.86"/>
<polygon fill="black" stroke="black" points="664.2,-180.89 671.67,-173.37 661.14,-174.6 664.2,-180.89"/>
</g>
<!-- G&#45;&gt;P -->
<g id="edge86" class="edge">
<title>G&#45;&gt;P</title>
<path fill="none" stroke="black" d="M569.5,-221.95C574.46,-219.67 579.82,-217.5 585,-216 708.87,-180.01 749.13,-215.99 873,-180 874.94,-179.44 876.91,-178.78 878.87,-178.06"/>
<polygon fill="black" stroke="black" points="880.61,-181.12 888.5,-174.05 877.92,-174.66 880.61,-181.12"/>
</g>
<!-- G&#45;&gt;Q -->
<g id="edge87" class="edge">
<title>G&#45;&gt;Q</title>
<path fill="none" stroke="black" d="M570.03,-222.23C574.87,-219.98 580.05,-217.77 585,-216 647.13,-193.81 666.87,-202.19 729,-180 730.86,-179.34 732.74,-178.61 734.63,-177.84"/>
<polygon fill="black" stroke="black" points="736.2,-180.98 743.97,-173.77 733.41,-174.56 736.2,-180.98"/>
</g>
<!-- G&#45;&gt;R -->
<g id="edge88" class="edge">
<title>G&#45;&gt;R</title>
<path fill="none" stroke="black" d="M563.57,-218.83C573.75,-208.94 587.52,-195.55 599.03,-184.36"/>
<polygon fill="black" stroke="black" points="601.47,-186.87 606.2,-177.38 596.59,-181.85 601.47,-186.87"/>
</g>
<!-- G&#45;&gt;S -->
<g id="edge89" class="edge">
<title>G&#45;&gt;S</title>
<path fill="none" stroke="black" d="M569.55,-222.11C574.5,-219.82 579.85,-217.61 585,-216 677.89,-186.94 708.11,-209.06 801,-180 802.93,-179.4 804.89,-178.71 806.84,-177.96"/>
<polygon fill="black" stroke="black" points="808.61,-181.02 816.45,-173.89 805.88,-174.57 808.61,-181.02"/>
</g>
<!-- G&#45;&gt;T -->
<g id="edge90" class="edge">
<title>G&#45;&gt;T</title>
<path fill="none" stroke="black" d="M569.48,-221.86C574.43,-219.58 579.8,-217.44 585,-216 739.95,-173.04 790.05,-222.96 945,-180 946.95,-179.46 948.92,-178.82 950.89,-178.11"/>
<polygon fill="black" stroke="black" points="952.62,-181.19 960.52,-174.14 949.95,-174.72 952.62,-181.19"/>
</g>
<!-- H&#45;&gt;K -->
<g id="edge91" class="edge">
<title>H&#45;&gt;K</title>
<path fill="none" stroke="black" d="M709.85,-248.22C741.87,-273.34 811.62,-328.06 849.06,-357.44"/>
<polygon fill="black" stroke="black" points="846.94,-360.22 856.97,-363.64 851.26,-354.71 846.94,-360.22"/>
</g>
<!-- H&#45;&gt;L -->
<g id="edge92" class="edge">
<title>H&#45;&gt;L</title>
<path fill="none" stroke="black" d="M713.48,-221.86C718.43,-219.58 723.8,-217.44 729,-216 883.95,-173.04 934.05,-222.96 1089,-180 1090.95,-179.46 1092.92,-178.82 1094.89,-178.11"/>
<polygon fill="black" stroke="black" points="1096.62,-181.19 1104.52,-174.14 1093.95,-174.72 1096.62,-181.19"/>
</g>
<!-- H&#45;&gt;M -->
<g id="edge93" class="edge">
<title>H&#45;&gt;M</title>
<path fill="none" stroke="black" d="M713.46,-221.8C718.42,-219.52 723.79,-217.4 729,-216 915.08,-166.07 974.92,-229.93 1161,-180 1162.95,-179.48 1164.93,-178.85 1166.9,-178.15"/>
<polygon fill="black" stroke="black" points="1168.62,-181.23 1176.54,-174.2 1165.96,-174.75 1168.62,-181.23"/>
</g>
<!-- H&#45;&gt;N -->
<g id="edge94" class="edge">
<title>H&#45;&gt;N</title>
<path fill="none" stroke="black" d="M713.5,-221.95C718.46,-219.67 723.82,-217.5 729,-216 852.87,-180.01 893.13,-215.99 1017,-180 1018.94,-179.44 1020.91,-178.78 1022.87,-178.06"/>
<polygon fill="black" stroke="black" points="1024.61,-181.12 1032.5,-174.05 1021.92,-174.66 1024.61,-181.12"/>
</g>
<!-- H&#45;&gt;O -->
<g id="edge95" class="edge">
<title>H&#45;&gt;O</title>
<path fill="none" stroke="black" d="M693,-215.7C693,-207.98 693,-198.71 693,-190.11"/>
<polygon fill="black" stroke="black" points="696.5,-190.1 693,-180.1 689.5,-190.1 696.5,-190.1"/>
</g>
<!-- H&#45;&gt;P -->
<g id="edge96" class="edge">
<title>H&#45;&gt;P</title>
<path fill="none" stroke="black" d="M714.03,-222.23C718.87,-219.98 724.05,-217.77 729,-216 791.13,-193.81 810.87,-202.19 873,-180 874.86,-179.34 876.74,-178.61 878.63,-177.84"/>
<polygon fill="black" stroke="black" points="880.2,-180.98 887.97,-173.77 877.41,-174.56 880.2,-180.98"/>
</g>
<!-- H&#45;&gt;Q -->
<g id="edge97" class="edge">
<title>H&#45;&gt;Q</title>
<path fill="none" stroke="black" d="M707.57,-218.83C717.75,-208.94 731.52,-195.55 743.03,-184.36"/>
<polygon fill="black" stroke="black" points="745.47,-186.87 750.2,-177.38 740.59,-181.85 745.47,-186.87"/>
</g>
<!-- H&#45;&gt;R -->
<g id="edge98" class="edge">
<title>H&#45;&gt;R</title>
<path fill="none" stroke="black" d="M678.43,-218.83C668.25,-208.94 654.48,-195.55 642.97,-184.36"/>
<polygon fill="black" stroke="black" points="645.41,-181.85 635.8,-177.38 640.53,-186.87 645.41,-181.85"/>
</g>
<!-- H&#45;&gt;S -->
<g id="edge99" class="edge">
<title>H&#45;&gt;S</title>
<path fill="none" stroke="black" d="M714.25,-222.67C738.6,-210.83 778.72,-191.33 806.43,-177.86"/>
<polygon fill="black" stroke="black" points="808.2,-180.89 815.67,-173.37 805.14,-174.6 808.2,-180.89"/>
</g>
<!-- H&#45;&gt;T -->
<g id="edge100" class="edge">
<title>H&#45;&gt;T</title>
<path fill="none" stroke="black" d="M713.55,-222.11C718.5,-219.82 723.85,-217.61 729,-216 821.89,-186.94 852.11,-209.06 945,-180 946.93,-179.4 948.89,-178.71 950.84,-177.96"/>
<polygon fill="black" stroke="black" points="952.61,-181.02 960.45,-173.89 949.88,-174.57 952.61,-181.02"/>
</g>
<!-- I&#45;&gt;K -->
<g id="edge101" class="edge">
<title>I&#45;&gt;K</title>
<path fill="none" stroke="black" d="M779.06,-249.9C788.66,-260.31 801.5,-274.67 812,-288 828.57,-309.04 845.86,-334.17 857.96,-352.35"/>
<polygon fill="black" stroke="black" points="855.35,-354.75 863.78,-361.17 861.19,-350.89 855.35,-354.75"/>
</g>
<!-- I&#45;&gt;L -->
<g id="edge102" class="edge">
<title>I&#45;&gt;L</title>
<path fill="none" stroke="black" d="M789.9,-226.74C804.2,-223.28 822.54,-219.07 839,-216 949.35,-195.42 981.5,-212.33 1089,-180 1090.94,-179.42 1092.9,-178.75 1094.86,-178.01"/>
<polygon fill="black" stroke="black" points="1096.61,-181.07 1104.48,-173.98 1093.9,-174.62 1096.61,-181.07"/>
</g>
<!-- I&#45;&gt;M -->
<g id="edge103" class="edge">
<title>I&#45;&gt;M</title>
<path fill="none" stroke="black" d="M789.86,-226.54C804.16,-223.01 822.5,-218.81 839,-216 980.96,-191.84 1022.46,-219.28 1161,-180 1162.95,-179.45 1164.92,-178.8 1166.88,-178.09"/>
<polygon fill="black" stroke="black" points="1168.61,-181.16 1176.51,-174.09 1165.93,-174.69 1168.61,-181.16"/>
</g>
<!-- I&#45;&gt;N -->
<g id="edge104" class="edge">
<title>I&#45;&gt;N</title>
<path fill="none" stroke="black" d="M789.97,-227.09C804.3,-223.75 822.64,-219.53 839,-216 917.89,-198.96 940.39,-205.42 1017,-180 1018.92,-179.36 1020.87,-178.65 1022.82,-177.89"/>
<polygon fill="black" stroke="black" points="1024.61,-180.93 1032.41,-173.76 1021.84,-174.5 1024.61,-180.93"/>
</g>
<!-- I&#45;&gt;O -->
<g id="edge105" class="edge">
<title>I&#45;&gt;O</title>
<path fill="none" stroke="black" d="M750.43,-218.83C740.25,-208.94 726.48,-195.55 714.97,-184.36"/>
<polygon fill="black" stroke="black" points="717.41,-181.85 707.8,-177.38 712.53,-186.87 717.41,-181.85"/>
</g>
<!-- I&#45;&gt;P -->
<g id="edge106" class="edge">
<title>I&#45;&gt;P</title>
<path fill="none" stroke="black" d="M786.25,-222.67C810.6,-210.83 850.72,-191.33 878.43,-177.86"/>
<polygon fill="black" stroke="black" points="880.2,-180.89 887.67,-173.37 877.14,-174.6 880.2,-180.89"/>
</g>
<!-- I&#45;&gt;Q -->
<g id="edge107" class="edge">
<title>I&#45;&gt;Q</title>
<path fill="none" stroke="black" d="M765,-215.7C765,-207.98 765,-198.71 765,-190.11"/>
<polygon fill="black" stroke="black" points="768.5,-190.1 765,-180.1 761.5,-190.1 768.5,-190.1"/>
</g>
<!-- I&#45;&gt;R -->
<g id="edge108" class="edge">
<title>I&#45;&gt;R</title>
<path fill="none" stroke="black" d="M743.75,-222.67C719.4,-210.83 679.28,-191.33 651.57,-177.86"/>
<polygon fill="black" stroke="black" points="652.86,-174.6 642.33,-173.37 649.8,-180.89 652.86,-174.6"/>
</g>
<!-- I&#45;&gt;S -->
<g id="edge109" class="edge">
<title>I&#45;&gt;S</title>
<path fill="none" stroke="black" d="M779.57,-218.83C789.75,-208.94 803.52,-195.55 815.03,-184.36"/>
<polygon fill="black" stroke="black" points="817.47,-186.87 822.2,-177.38 812.59,-181.85 817.47,-186.87"/>
</g>
<!-- I&#45;&gt;T -->
<g id="edge110" class="edge">
<title>I&#45;&gt;T</title>
<path fill="none" stroke="black" d="M790.15,-226.91C825.32,-218.1 890.96,-200.57 945,-180 946.84,-179.3 948.72,-178.54 950.6,-177.75"/>
<polygon fill="black" stroke="black" points="952.19,-180.88 959.92,-173.62 949.36,-174.48 952.19,-180.88"/>
</g>
<!-- J&#45;&gt;K -->
<g id="edge111" class="edge">
<title>J&#45;&gt;K</title>
<path fill="none" stroke="black" d="M638.5,-247.71C663.88,-265.86 712.73,-299.68 757,-324 785,-339.38 818.3,-354.15 842.2,-364.17"/>
<polygon fill="black" stroke="black" points="840.93,-367.43 851.51,-368.03 843.61,-360.96 840.93,-367.43"/>
</g>
<!-- J&#45;&gt;L -->
<g id="edge112" class="edge">
<title>J&#45;&gt;L</title>
<path fill="none" stroke="black" d="M641.46,-221.8C646.42,-219.52 651.79,-217.4 657,-216 843.08,-166.07 902.92,-229.93 1089,-180 1090.95,-179.48 1092.93,-178.85 1094.9,-178.15"/>
<polygon fill="black" stroke="black" points="1096.62,-181.23 1104.54,-174.2 1093.96,-174.75 1096.62,-181.23"/>
</g>
<!-- J&#45;&gt;M -->
<g id="edge113" class="edge">
<title>J&#45;&gt;M</title>
<path fill="none" stroke="black" d="M641.07,-221.93C646.13,-219.59 651.65,-217.4 657,-216 874.24,-159.08 943.76,-236.92 1161,-180 1163.17,-179.43 1165.37,-178.73 1167.56,-177.95"/>
<polygon fill="black" stroke="black" points="1169.03,-181.13 1176.93,-174.07 1166.36,-174.66 1169.03,-181.13"/>
</g>
<!-- J&#45;&gt;N -->
<g id="edge114" class="edge">
<title>J&#45;&gt;N</title>
<path fill="none" stroke="black" d="M641.48,-221.86C646.43,-219.58 651.8,-217.44 657,-216 811.95,-173.04 862.05,-222.96 1017,-180 1018.95,-179.46 1020.92,-178.82 1022.89,-178.11"/>
<polygon fill="black" stroke="black" points="1024.62,-181.19 1032.52,-174.14 1021.95,-174.72 1024.62,-181.19"/>
</g>
<!-- J&#45;&gt;O -->
<g id="edge115" class="edge">
<title>J&#45;&gt;O</title>
<path fill="none" stroke="black" d="M635.57,-218.83C645.75,-208.94 659.52,-195.55 671.03,-184.36"/>
<polygon fill="black" stroke="black" points="673.47,-186.87 678.2,-177.38 668.59,-181.85 673.47,-186.87"/>
</g>
<!-- J&#45;&gt;P -->
<g id="edge116" class="edge">
<title>J&#45;&gt;P</title>
<path fill="none" stroke="black" d="M641.55,-222.11C646.5,-219.82 651.85,-217.61 657,-216 749.89,-186.94 780.11,-209.06 873,-180 874.93,-179.4 876.89,-178.71 878.84,-177.96"/>
<polygon fill="black" stroke="black" points="880.61,-181.02 888.45,-173.89 877.88,-174.57 880.61,-181.02"/>
</g>
<!-- J&#45;&gt;Q -->
<g id="edge117" class="edge">
<title>J&#45;&gt;Q</title>
<path fill="none" stroke="black" d="M642.25,-222.67C666.6,-210.83 706.72,-191.33 734.43,-177.86"/>
<polygon fill="black" stroke="black" points="736.2,-180.89 743.67,-173.37 733.14,-174.6 736.2,-180.89"/>
</g>
<!-- J&#45;&gt;R -->
<g id="edge118" class="edge">
<title>J&#45;&gt;R</title>
<path fill="none" stroke="black" d="M621,-215.7C621,-207.98 621,-198.71 621,-190.11"/>
<polygon fill="black" stroke="black" points="624.5,-190.1 621,-180.1 617.5,-190.1 624.5,-190.1"/>
</g>
<!-- J&#45;&gt;S -->
<g id="edge119" class="edge">
<title>J&#45;&gt;S</title>
<path fill="none" stroke="black" d="M642.03,-222.23C646.87,-219.98 652.05,-217.77 657,-216 719.13,-193.81 738.87,-202.19 801,-180 802.86,-179.34 804.74,-178.61 806.63,-177.84"/>
<polygon fill="black" stroke="black" points="808.2,-180.98 815.97,-173.77 805.41,-174.56 808.2,-180.98"/>
</g>
<!-- J&#45;&gt;T -->
<g id="edge120" class="edge">
<title>J&#45;&gt;T</title>
<path fill="none" stroke="black" d="M641.5,-221.95C646.46,-219.67 651.82,-217.5 657,-216 780.87,-180.01 821.13,-215.99 945,-180 946.94,-179.44 948.91,-178.78 950.87,-178.06"/>
<polygon fill="black" stroke="black" points="952.61,-181.12 960.5,-174.05 949.92,-174.66 952.61,-181.12"/>
</g>
<!-- K&#45;&gt;X -->
<g id="edge121" class="edge">
<title>K&#45;&gt;X</title>
<path fill="none" stroke="black" d="M874,-396.19C874,-420.42 874,-464.89 874,-493.68"/>
<polygon fill="black" stroke="black" points="870.5,-493.87 874,-503.87 877.5,-493.87 870.5,-493.87"/>
</g>
<!-- K&#45;&gt;Y -->
<g id="edge122" class="edge">
<title>K&#45;&gt;Y</title>
<path fill="none" stroke="black" d="M885.93,-361.81C893.21,-352.55 902.66,-340.52 910.85,-330.09"/>
<polygon fill="black" stroke="black" points="913.66,-332.18 917.09,-322.16 908.16,-327.86 913.66,-332.18"/>
</g>
<!-- U -->
<g id="node23" class="node">
<title>U</title>
<ellipse fill="none" stroke="black" cx="981" cy="-90" rx="27" ry="18"/>
<text text-anchor="middle" x="981" y="-86.3" font-family="Times New Roman,serif" font-size="14.00">U</text>
</g>
<!-- K&#45;&gt;U -->
<g id="edge123" class="edge">
<title>K&#45;&gt;U</title>
<path fill="none" stroke="black" d="M900.21,-373.63C986.15,-361.98 1256.74,-320.33 1305,-252 1380.61,-144.96 1117.75,-105.45 1017.92,-94.5"/>
<polygon fill="black" stroke="black" points="1017.99,-90.99 1007.68,-93.42 1017.25,-97.95 1017.99,-90.99"/>
</g>
<!-- V -->
<g id="node24" class="node">
<title>V</title>
<ellipse fill="none" stroke="black" cx="837" cy="-90" rx="27" ry="18"/>
<text text-anchor="middle" x="837" y="-86.3" font-family="Times New Roman,serif" font-size="14.00">V</text>
</g>
<!-- K&#45;&gt;V -->
<g id="edge124" class="edge">
<title>K&#45;&gt;V</title>
<path fill="none" stroke="black" d="M846.9,-376.05C771.94,-372.97 563.75,-361.18 508,-324 476.99,-303.32 474.91,-287.93 465,-252 451.54,-203.23 460.17,-173.88 501,-144 548.05,-109.57 722.42,-96.72 799.71,-92.64"/>
<polygon fill="black" stroke="black" points="800.14,-96.13 809.95,-92.13 799.78,-89.14 800.14,-96.13"/>
</g>
<!-- W -->
<g id="node25" class="node">
<title>W</title>
<ellipse fill="none" stroke="black" cx="909" cy="-90" rx="27" ry="18"/>
<text text-anchor="middle" x="909" y="-86.3" font-family="Times New Roman,serif" font-size="14.00">W</text>
</g>
<!-- K&#45;&gt;W -->
<g id="edge125" class="edge">
<title>K&#45;&gt;W</title>
<path fill="none" stroke="black" d="M847.51,-373.58C801.24,-367.12 703.06,-351.27 624,-324 547.36,-297.56 438.75,-287.48 477,-216 504.22,-165.14 530.93,-164.12 585,-144 705.9,-99.02 749.13,-143.99 873,-108 874.94,-107.44 876.91,-106.78 878.87,-106.06"/>
<polygon fill="black" stroke="black" points="880.61,-109.12 888.5,-102.05 877.92,-102.66 880.61,-109.12"/>
</g>
<!-- L&#45;&gt;X -->
<g id="edge126" class="edge">
<title>L&#45;&gt;X</title>
<path fill="none" stroke="black" d="M1145.62,-173.67C1150.57,-175.97 1155.9,-178.24 1161,-180 1229.07,-203.52 1248.95,-199.24 1319,-216 1477.2,-253.85 1674,-142.34 1674,-305 1674,-379 1674,-379 1674,-379 1674,-463.89 1586.48,-444.19 1505,-468 1392.44,-500.89 1029.26,-515.77 911.35,-519.81"/>
<polygon fill="black" stroke="black" points="910.92,-516.33 901.04,-520.16 911.15,-523.32 910.92,-516.33"/>
</g>
<!-- L&#45;&gt;Y -->
<g id="edge127" class="edge">
<title>L&#45;&gt;Y</title>
<path fill="none" stroke="black" d="M1146.13,-173.51C1150.96,-175.77 1156.12,-178.06 1161,-180 1208.8,-199.02 1240.81,-174.35 1271,-216 1280.39,-228.95 1281.41,-239.85 1271,-252 1232.04,-297.46 1046.46,-304.26 966.16,-305.04"/>
<polygon fill="black" stroke="black" points="965.98,-301.54 956.01,-305.11 966.03,-308.54 965.98,-301.54"/>
</g>
<!-- L&#45;&gt;U -->
<g id="edge128" class="edge">
<title>L&#45;&gt;U</title>
<path fill="none" stroke="black" d="M1103.75,-150.67C1079.4,-138.83 1039.28,-119.33 1011.57,-105.86"/>
<polygon fill="black" stroke="black" points="1012.86,-102.6 1002.33,-101.37 1009.8,-108.89 1012.86,-102.6"/>
</g>
<!-- L&#45;&gt;V -->
<g id="edge129" class="edge">
<title>L&#45;&gt;V</title>
<path fill="none" stroke="black" d="M1104.45,-150.11C1099.5,-147.82 1094.15,-145.61 1089,-144 996.11,-114.94 965.89,-137.06 873,-108 871.07,-107.4 869.11,-106.71 867.16,-105.96"/>
<polygon fill="black" stroke="black" points="868.12,-102.57 857.55,-101.89 865.39,-109.02 868.12,-102.57"/>
</g>
<!-- L&#45;&gt;W -->
<g id="edge130" class="edge">
<title>L&#45;&gt;W</title>
<path fill="none" stroke="black" d="M1103.97,-150.23C1099.13,-147.98 1093.95,-145.77 1089,-144 1026.87,-121.81 1007.13,-130.19 945,-108 943.14,-107.34 941.26,-106.61 939.37,-105.84"/>
<polygon fill="black" stroke="black" points="940.59,-102.56 930.03,-101.77 937.8,-108.98 940.59,-102.56"/>
</g>
<!-- M&#45;&gt;X -->
<g id="edge131" class="edge">
<title>M&#45;&gt;X</title>
<path fill="none" stroke="black" d="M1223.93,-163.61C1339.55,-166.92 1788,-187.34 1788,-305 1788,-379 1788,-379 1788,-379 1788,-475.08 1684.11,-444.32 1591,-468 1460.25,-501.25 1039.06,-516.14 911.17,-519.97"/>
<polygon fill="black" stroke="black" points="910.98,-516.47 901.09,-520.26 911.19,-523.47 910.98,-516.47"/>
</g>
<!-- M&#45;&gt;Y -->
<g id="edge132" class="edge">
<title>M&#45;&gt;Y</title>
<path fill="none" stroke="black" d="M1221.72,-169.77C1243.5,-177.18 1273.88,-191.43 1288,-216 1295.97,-229.87 1298.45,-239.89 1288,-252 1246.7,-299.85 1049.56,-305.25 966.28,-305.35"/>
<polygon fill="black" stroke="black" points="966.24,-301.85 956.24,-305.34 966.23,-308.85 966.24,-301.85"/>
</g>
<!-- M&#45;&gt;U -->
<g id="edge133" class="edge">
<title>M&#45;&gt;U</title>
<path fill="none" stroke="black" d="M1175.92,-150.38C1171.08,-148.13 1165.91,-145.87 1161,-144 1111.6,-125.19 1052.52,-108.94 1015.87,-99.55"/>
<polygon fill="black" stroke="black" points="1016.71,-96.15 1006.15,-97.09 1014.99,-102.94 1016.71,-96.15"/>
</g>
<!-- M&#45;&gt;V -->
<g id="edge134" class="edge">
<title>M&#45;&gt;V</title>
<path fill="none" stroke="black" d="M1176.5,-149.95C1171.54,-147.67 1166.18,-145.5 1161,-144 1037.13,-108.01 996.87,-143.99 873,-108 871.06,-107.44 869.09,-106.78 867.13,-106.06"/>
<polygon fill="black" stroke="black" points="868.08,-102.66 857.5,-102.05 865.39,-109.12 868.08,-102.66"/>
</g>
<!-- M&#45;&gt;W -->
<g id="edge135" class="edge">
<title>M&#45;&gt;W</title>
<path fill="none" stroke="black" d="M1176.45,-150.11C1171.5,-147.82 1166.15,-145.61 1161,-144 1068.11,-114.94 1037.89,-137.06 945,-108 943.07,-107.4 941.11,-106.71 939.16,-105.96"/>
<polygon fill="black" stroke="black" points="940.12,-102.57 929.55,-101.89 937.39,-109.02 940.12,-102.57"/>
</g>
<!-- N&#45;&gt;X -->
<g id="edge136" class="edge">
<title>N&#45;&gt;X</title>
<path fill="none" stroke="black" d="M1073.55,-173.87C1078.51,-176.16 1083.86,-178.38 1089,-180 1295.53,-245.22 1560,-88.42 1560,-305 1560,-379 1560,-379 1560,-379 1560,-512.63 1054.52,-521.48 911.37,-521.3"/>
<polygon fill="black" stroke="black" points="911.33,-517.8 901.32,-521.27 911.31,-524.8 911.33,-517.8"/>
</g>
<!-- N&#45;&gt;Y -->
<g id="edge137" class="edge">
<title>N&#45;&gt;Y</title>
<path fill="none" stroke="black" d="M1073.61,-173.71C1078.56,-176.01 1083.9,-178.26 1089,-180 1160.06,-204.18 1206.92,-157.54 1254,-216 1264.04,-228.46 1264.36,-239.81 1254,-252 1217.4,-295.06 1043.5,-303.22 966.19,-304.7"/>
<polygon fill="black" stroke="black" points="965.89,-301.21 955.95,-304.87 966.01,-308.21 965.89,-301.21"/>
</g>
<!-- N&#45;&gt;U -->
<g id="edge138" class="edge">
<title>N&#45;&gt;U</title>
<path fill="none" stroke="black" d="M1038.43,-146.83C1028.25,-136.94 1014.48,-123.55 1002.97,-112.36"/>
<polygon fill="black" stroke="black" points="1005.41,-109.85 995.8,-105.38 1000.53,-114.87 1005.41,-109.85"/>
</g>
<!-- N&#45;&gt;V -->
<g id="edge139" class="edge">
<title>N&#45;&gt;V</title>
<path fill="none" stroke="black" d="M1031.97,-150.23C1027.13,-147.98 1021.95,-145.77 1017,-144 954.87,-121.81 935.13,-130.19 873,-108 871.14,-107.34 869.26,-106.61 867.37,-105.84"/>
<polygon fill="black" stroke="black" points="868.59,-102.56 858.03,-101.77 865.8,-108.98 868.59,-102.56"/>
</g>
<!-- N&#45;&gt;W -->
<g id="edge140" class="edge">
<title>N&#45;&gt;W</title>
<path fill="none" stroke="black" d="M1031.75,-150.67C1007.4,-138.83 967.28,-119.33 939.57,-105.86"/>
<polygon fill="black" stroke="black" points="940.86,-102.6 930.33,-101.37 937.8,-108.89 940.86,-102.6"/>
</g>
<!-- O&#45;&gt;X -->
<g id="edge141" class="edge">
<title>O&#45;&gt;X</title>
<path fill="none" stroke="black" d="M672.54,-174.19C667.58,-176.47 662.2,-178.59 657,-180 477.84,-228.38 409.23,-137.65 241,-216 190.29,-239.62 152,-249.06 152,-305 152,-379 152,-379 152,-379 152,-519.83 687.56,-523.41 836.16,-521.69"/>
<polygon fill="black" stroke="black" points="836.63,-525.19 846.58,-521.55 836.53,-518.19 836.63,-525.19"/>
</g>
<!-- O&#45;&gt;Y -->
<g id="edge142" class="edge">
<title>O&#45;&gt;Y</title>
<path fill="none" stroke="black" d="M672.38,-173.66C667.42,-175.96 662.09,-178.23 657,-180 589.78,-203.33 545.3,-160.32 501,-216 491.04,-228.52 490.4,-240.01 501,-252 526.74,-281.13 792.4,-297.88 891.77,-303.16"/>
<polygon fill="black" stroke="black" points="891.78,-306.67 901.95,-303.69 892.14,-299.68 891.78,-306.67"/>
</g>
<!-- O&#45;&gt;U -->
<g id="edge143" class="edge">
<title>O&#45;&gt;U</title>
<path fill="none" stroke="black" d="M713.55,-150.11C718.5,-147.82 723.85,-145.61 729,-144 821.89,-114.94 852.11,-137.06 945,-108 946.93,-107.4 948.89,-106.71 950.84,-105.96"/>
<polygon fill="black" stroke="black" points="952.61,-109.02 960.45,-101.89 949.88,-102.57 952.61,-109.02"/>
</g>
<!-- O&#45;&gt;V -->
<g id="edge144" class="edge">
<title>O&#45;&gt;V</title>
<path fill="none" stroke="black" d="M714.25,-150.67C738.6,-138.83 778.72,-119.33 806.43,-105.86"/>
<polygon fill="black" stroke="black" points="808.2,-108.89 815.67,-101.37 805.14,-102.6 808.2,-108.89"/>
</g>
<!-- O&#45;&gt;W -->
<g id="edge145" class="edge">
<title>O&#45;&gt;W</title>
<path fill="none" stroke="black" d="M714.03,-150.23C718.87,-147.98 724.05,-145.77 729,-144 791.13,-121.81 810.87,-130.19 873,-108 874.86,-107.34 876.74,-106.61 878.63,-105.84"/>
<polygon fill="black" stroke="black" points="880.2,-108.98 887.97,-101.77 877.41,-102.56 880.2,-108.98"/>
</g>
<!-- P&#45;&gt;X -->
<g id="edge146" class="edge">
<title>P&#45;&gt;X</title>
<path fill="none" stroke="black" d="M929.49,-174.09C934.45,-176.37 939.82,-178.52 945,-180 1012.76,-199.3 1213.09,-163.43 1260,-216 1352.5,-319.67 1198.5,-404.33 1075,-468 1021.33,-495.67 951.95,-509.81 910.33,-516.29"/>
<polygon fill="black" stroke="black" points="909.74,-512.84 900.37,-517.77 910.78,-519.76 909.74,-512.84"/>
</g>
<!-- P&#45;&gt;Y -->
<g id="edge147" class="edge">
<title>P&#45;&gt;Y</title>
<path fill="none" stroke="black" d="M911.42,-180.19C914.83,-204.42 921.1,-248.89 925.15,-277.68"/>
<polygon fill="black" stroke="black" points="921.73,-278.46 926.59,-287.87 928.66,-277.48 921.73,-278.46"/>
</g>
<!-- P&#45;&gt;U -->
<g id="edge148" class="edge">
<title>P&#45;&gt;U</title>
<path fill="none" stroke="black" d="M923.57,-146.83C933.75,-136.94 947.52,-123.55 959.03,-112.36"/>
<polygon fill="black" stroke="black" points="961.47,-114.87 966.2,-105.38 956.59,-109.85 961.47,-114.87"/>
</g>
<!-- P&#45;&gt;V -->
<g id="edge149" class="edge">
<title>P&#45;&gt;V</title>
<path fill="none" stroke="black" d="M894.43,-146.83C884.25,-136.94 870.48,-123.55 858.97,-112.36"/>
<polygon fill="black" stroke="black" points="861.41,-109.85 851.8,-105.38 856.53,-114.87 861.41,-109.85"/>
</g>
<!-- P&#45;&gt;W -->
<g id="edge150" class="edge">
<title>P&#45;&gt;W</title>
<path fill="none" stroke="black" d="M909,-143.7C909,-135.98 909,-126.71 909,-118.11"/>
<polygon fill="black" stroke="black" points="912.5,-118.1 909,-108.1 905.5,-118.1 912.5,-118.1"/>
</g>
<!-- Q&#45;&gt;X -->
<g id="edge151" class="edge">
<title>Q&#45;&gt;X</title>
<path fill="none" stroke="black" d="M744.53,-174.16C739.57,-176.44 734.2,-178.57 729,-180 565.4,-224.89 501.21,-141.09 349,-216 300.47,-239.88 266,-250.91 266,-305 266,-379 266,-379 266,-379 266,-496.81 704.33,-516.93 836.63,-520.32"/>
<polygon fill="black" stroke="black" points="836.61,-523.82 846.69,-520.56 836.78,-516.83 836.61,-523.82"/>
</g>
<!-- Q&#45;&gt;Y -->
<g id="edge152" class="edge">
<title>Q&#45;&gt;Y</title>
<path fill="none" stroke="black" d="M744.45,-173.89C739.5,-176.18 734.15,-178.39 729,-180 682.56,-194.53 544.45,-178.87 513,-216 502.66,-228.21 502.43,-239.99 513,-252 537.9,-280.27 794.5,-297.48 891.84,-303.03"/>
<polygon fill="black" stroke="black" points="891.91,-306.53 902.09,-303.6 892.3,-299.55 891.91,-306.53"/>
</g>
<!-- Q&#45;&gt;U -->
<g id="edge153" class="edge">
<title>Q&#45;&gt;U</title>
<path fill="none" stroke="black" d="M786.03,-150.23C790.87,-147.98 796.05,-145.77 801,-144 863.13,-121.81 882.87,-130.19 945,-108 946.86,-107.34 948.74,-106.61 950.63,-105.84"/>
<polygon fill="black" stroke="black" points="952.2,-108.98 959.97,-101.77 949.41,-102.56 952.2,-108.98"/>
</g>
<!-- Q&#45;&gt;V -->
<g id="edge154" class="edge">
<title>Q&#45;&gt;V</title>
<path fill="none" stroke="black" d="M779.57,-146.83C789.75,-136.94 803.52,-123.55 815.03,-112.36"/>
<polygon fill="black" stroke="black" points="817.47,-114.87 822.2,-105.38 812.59,-109.85 817.47,-114.87"/>
</g>
<!-- Q&#45;&gt;W -->
<g id="edge155" class="edge">
<title>Q&#45;&gt;W</title>
<path fill="none" stroke="black" d="M786.25,-150.67C810.6,-138.83 850.72,-119.33 878.43,-105.86"/>
<polygon fill="black" stroke="black" points="880.2,-108.89 887.67,-101.37 877.14,-102.6 880.2,-108.89"/>
</g>
<!-- R&#45;&gt;X -->
<g id="edge156" class="edge">
<title>R&#45;&gt;X</title>
<path fill="none" stroke="black" d="M593.86,-163.58C503.18,-165.87 211.69,-176.25 128,-216 77.19,-240.14 38,-248.74 38,-305 38,-379 38,-379 38,-379 38,-456.14 113.49,-444.64 187,-468 309.69,-506.99 711.67,-517.88 836.61,-520.36"/>
<polygon fill="black" stroke="black" points="836.75,-523.87 846.81,-520.56 836.88,-516.87 836.75,-523.87"/>
</g>
<!-- R&#45;&gt;Y -->
<g id="edge157" class="edge">
<title>R&#45;&gt;Y</title>
<path fill="none" stroke="black" d="M594.28,-165.15C563.01,-169.26 512.51,-181.22 489,-216 480.04,-229.25 478.38,-240.03 489,-252 515.62,-282.02 791.05,-298.31 892.1,-303.31"/>
<polygon fill="black" stroke="black" points="891.99,-306.81 902.15,-303.8 892.33,-299.82 891.99,-306.81"/>
</g>
<!-- R&#45;&gt;U -->
<g id="edge158" class="edge">
<title>R&#45;&gt;U</title>
<path fill="none" stroke="black" d="M641.5,-149.95C646.46,-147.67 651.82,-145.5 657,-144 780.87,-108.01 821.13,-143.99 945,-108 946.94,-107.44 948.91,-106.78 950.87,-106.06"/>
<polygon fill="black" stroke="black" points="952.61,-109.12 960.5,-102.05 949.92,-102.66 952.61,-109.12"/>
</g>
<!-- R&#45;&gt;V -->
<g id="edge159" class="edge">
<title>R&#45;&gt;V</title>
<path fill="none" stroke="black" d="M642.08,-150.38C646.92,-148.13 652.09,-145.87 657,-144 706.4,-125.19 765.48,-108.94 802.13,-99.55"/>
<polygon fill="black" stroke="black" points="803.01,-102.94 811.85,-97.09 801.29,-96.15 803.01,-102.94"/>
</g>
<!-- R&#45;&gt;W -->
<g id="edge160" class="edge">
<title>R&#45;&gt;W</title>
<path fill="none" stroke="black" d="M641.55,-150.11C646.5,-147.82 651.85,-145.61 657,-144 749.89,-114.94 780.11,-137.06 873,-108 874.93,-107.4 876.89,-106.71 878.84,-105.96"/>
<polygon fill="black" stroke="black" points="880.61,-109.02 888.45,-101.89 877.88,-102.57 880.61,-109.02"/>
</g>
<!-- S&#45;&gt;X -->
<g id="edge161" class="edge">
<title>S&#45;&gt;X</title>
<path fill="none" stroke="black" d="M816.51,-174.08C811.55,-176.36 806.18,-178.52 801,-180 666.77,-218.31 617.58,-161.67 489,-216 431.39,-240.34 380,-242.46 380,-305 380,-379 380,-379 380,-379 380,-474.08 722.3,-509.26 837.03,-518.38"/>
<polygon fill="black" stroke="black" points="836.85,-521.88 847.09,-519.16 837.39,-514.9 836.85,-521.88"/>
</g>
<!-- S&#45;&gt;Y -->
<g id="edge162" class="edge">
<title>S&#45;&gt;Y</title>
<path fill="none" stroke="black" d="M832.75,-180.06C829.03,-199.02 826.02,-229.87 839,-252 851.22,-272.83 875.09,-286.34 895.18,-294.5"/>
<polygon fill="black" stroke="black" points="894.08,-297.82 904.67,-298.08 896.55,-291.27 894.08,-297.82"/>
</g>
<!-- S&#45;&gt;U -->
<g id="edge163" class="edge">
<title>S&#45;&gt;U</title>
<path fill="none" stroke="black" d="M858.25,-150.67C882.6,-138.83 922.72,-119.33 950.43,-105.86"/>
<polygon fill="black" stroke="black" points="952.2,-108.89 959.67,-101.37 949.14,-102.6 952.2,-108.89"/>
</g>
<!-- S&#45;&gt;V -->
<g id="edge164" class="edge">
<title>S&#45;&gt;V</title>
<path fill="none" stroke="black" d="M837,-143.7C837,-135.98 837,-126.71 837,-118.11"/>
<polygon fill="black" stroke="black" points="840.5,-118.1 837,-108.1 833.5,-118.1 840.5,-118.1"/>
</g>
<!-- S&#45;&gt;W -->
<g id="edge165" class="edge">
<title>S&#45;&gt;W</title>
<path fill="none" stroke="black" d="M851.57,-146.83C861.75,-136.94 875.52,-123.55 887.03,-112.36"/>
<polygon fill="black" stroke="black" points="889.47,-114.87 894.2,-105.38 884.59,-109.85 889.47,-114.87"/>
</g>
<!-- T&#45;&gt;X -->
<g id="edge166" class="edge">
<title>T&#45;&gt;X</title>
<path fill="none" stroke="black" d="M1001.52,-173.99C1006.47,-176.28 1011.83,-178.46 1017,-180 1072.69,-196.6 1232.52,-177.45 1276,-216 1312.47,-248.34 1311.21,-278.04 1295,-324 1240.02,-479.9 1003.45,-512.44 911.11,-519.22"/>
<polygon fill="black" stroke="black" points="910.84,-515.73 901.1,-519.9 911.31,-522.71 910.84,-515.73"/>
</g>
<!-- T&#45;&gt;Y -->
<g id="edge167" class="edge">
<title>T&#45;&gt;Y</title>
<path fill="none" stroke="black" d="M1001.54,-173.9C1006.5,-176.19 1011.85,-178.4 1017,-180 1064.3,-194.72 1204.92,-178.25 1237,-216 1247.36,-228.19 1247.31,-239.76 1237,-252 1202.76,-292.63 1040.62,-302.12 966.33,-304.33"/>
<polygon fill="black" stroke="black" points="965.94,-300.84 956.03,-304.6 966.12,-307.83 965.94,-300.84"/>
</g>
<!-- T&#45;&gt;U -->
<g id="edge168" class="edge">
<title>T&#45;&gt;U</title>
<path fill="none" stroke="black" d="M981,-143.7C981,-135.98 981,-126.71 981,-118.11"/>
<polygon fill="black" stroke="black" points="984.5,-118.1 981,-108.1 977.5,-118.1 984.5,-118.1"/>
</g>
<!-- T&#45;&gt;V -->
<g id="edge169" class="edge">
<title>T&#45;&gt;V</title>
<path fill="none" stroke="black" d="M959.75,-150.67C935.4,-138.83 895.28,-119.33 867.57,-105.86"/>
<polygon fill="black" stroke="black" points="868.86,-102.6 858.33,-101.37 865.8,-108.89 868.86,-102.6"/>
</g>
<!-- T&#45;&gt;W -->
<g id="edge170" class="edge">
<title>T&#45;&gt;W</title>
<path fill="none" stroke="black" d="M966.43,-146.83C956.25,-136.94 942.48,-123.55 930.97,-112.36"/>
<polygon fill="black" stroke="black" points="933.41,-109.85 923.8,-105.38 928.53,-114.87 933.41,-109.85"/>
</g>
<!-- U&#45;&gt;Z -->
<g id="edge173" class="edge">
<title>U&#45;&gt;Z</title>
<path fill="none" stroke="black" d="M966.43,-74.83C956.25,-64.94 942.48,-51.55 930.97,-40.36"/>
<polygon fill="black" stroke="black" points="933.41,-37.85 923.8,-33.38 928.53,-42.87 933.41,-37.85"/>
</g>
<!-- V&#45;&gt;Z -->
<g id="edge174" class="edge">
<title>V&#45;&gt;Z</title>
<path fill="none" stroke="black" d="M851.57,-74.83C861.75,-64.94 875.52,-51.55 887.03,-40.36"/>
<polygon fill="black" stroke="black" points="889.47,-42.87 894.2,-33.38 884.59,-37.85 889.47,-42.87"/>
</g>
<!-- W&#45;&gt;Z -->
<g id="edge175" class="edge">
<title>W&#45;&gt;Z</title>
<path fill="none" stroke="black" d="M909,-71.7C909,-63.98 909,-54.71 909,-46.11"/>
<polygon fill="black" stroke="black" points="912.5,-46.1 909,-36.1 905.5,-46.1 912.5,-46.1"/>
</g>
</g>
</svg>
