<?xml version="1.0" encoding="UTF-8" standalone="no"?>
<!DOCTYPE svg PUBLIC "-//W3C//DTD SVG 1.1//EN"
 "http://www.w3.org/Graphics/SVG/1.1/DTD/svg11.dtd">
<!-- Generated by graphviz version 5.0.1 (20220820.1526)
 -->
<!-- Title: G Pages: 1 -->
<svg width="202pt" height="166pt"
 viewBox="0.00 0.00 202.00 166.00" xmlns="http://www.w3.org/2000/svg" xmlns:xlink="http://www.w3.org/1999/xlink">
<g id="graph0" class="graph" transform="scale(1 1) rotate(0) translate(4 162)">
<title>G</title>
<polygon fill="white" stroke="none" points="-4,4 -4,-162 198,-162 198,4 -4,4"/>
<!-- g1 -->
<g id="node1" class="node">
<title>g1</title>
<polygon fill="none" stroke="black" points="0.28,-0.36 0.28,-46.36 94.28,-46.36 94.28,-0.36 0.28,-0.36"/>
<text text-anchor="middle" x="12.28" y="-31.16" font-family="Times New Roman,serif" font-size="14.00">a</text>
<polyline fill="none" stroke="black" points="0.28,-23.36 24.28,-23.36"/>
<text text-anchor="middle" x="12.28" y="-8.16" font-family="Times New Roman,serif" font-size="14.00">b</text>
<polyline fill="none" stroke="black" points="24.28,-0.36 24.28,-46.36"/>
<text text-anchor="middle" x="47.28" y="-19.66" font-family="Times New Roman,serif" font-size="14.00">AND</text>
<polyline fill="none" stroke="black" points="70.28,-0.36 70.28,-46.36"/>
<text text-anchor="middle" x="82.28" y="-19.66" font-family="Times New Roman,serif" font-size="14.00">o</text>
</g>
<!-- g3 -->
<g id="node3" class="node">
<title>g3</title>
<polygon fill="none" stroke="black" points="109.35,-49.69 109.35,-95.69 194.35,-95.69 194.35,-49.69 109.35,-49.69"/>
<text text-anchor="middle" x="121.35" y="-80.49" font-family="Times New Roman,serif" font-size="14.00">a</text>
<polyline fill="none" stroke="black" points="109.35,-72.69 133.35,-72.69"/>
<text text-anchor="middle" x="121.35" y="-57.49" font-family="Times New Roman,serif" font-size="14.00">b</text>
<polyline fill="none" stroke="black" points="133.35,-49.69 133.35,-95.69"/>
<text text-anchor="middle" x="151.85" y="-68.99" font-family="Times New Roman,serif" font-size="14.00">OR</text>
<polyline fill="none" stroke="black" points="170.35,-49.69 170.35,-95.69"/>
<text text-anchor="middle" x="182.35" y="-68.99" font-family="Times New Roman,serif" font-size="14.00">o</text>
</g>
<!-- g1&#45;&gt;g3 -->
<g id="edge1" class="edge">
<title>g1:o&#45;&gt;g3:a</title>
<path fill="none" stroke="black" d="M82.28,-46.36C82.28,-46.36 95.12,-64.89 102.95,-76.18"/>
<polygon fill="black" stroke="black" points="100.27,-78.47 108.85,-84.69 106.03,-74.48 100.27,-78.47"/>
</g>
<!-- g2 -->
<g id="node2" class="node">
<title>g2</title>
<polygon fill="none" stroke="black" points="92.48,-111.06 92.48,-157.06 186.48,-157.06 186.48,-111.06 92.48,-111.06"/>
<text text-anchor="middle" x="104.48" y="-141.86" font-family="Times New Roman,serif" font-size="14.00">a</text>
<polyline fill="none" stroke="black" points="92.48,-134.06 116.48,-134.06"/>
<text text-anchor="middle" x="104.48" y="-118.86" font-family="Times New Roman,serif" font-size="14.00">b</text>
<polyline fill="none" stroke="black" points="116.48,-111.06 116.48,-157.06"/>
<text text-anchor="middle" x="139.48" y="-130.36" font-family="Times New Roman,serif" font-size="14.00">AND</text>
<polyline fill="none" stroke="black" points="162.48,-111.06 162.48,-157.06"/>
<text text-anchor="middle" x="174.48" y="-130.36" font-family="Times New Roman,serif" font-size="14.00">o</text>
</g>
<!-- g2&#45;&gt;g3 -->
<g id="edge2" class="edge">
<title>g2:o&#45;&gt;g3:b</title>
<path fill="none" stroke="black" d="M174.48,-111.06C174.48,-111.06 134.42,-80.32 116.89,-66.87"/>
<polygon fill="black" stroke="black" points="118.91,-64 108.85,-60.69 114.65,-69.56 118.91,-64"/>
</g>
</g>
</svg>
