<?xml version="1.0" encoding="UTF-8" standalone="no"?>
<!DOCTYPE svg PUBLIC "-//W3C//DTD SVG 1.1//EN"
 "http://www.w3.org/Graphics/SVG/1.1/DTD/svg11.dtd">
<!-- Generated by graphviz version 5.0.1 (20220820.1526)
 -->
<!-- Title: G Pages: 1 -->
<svg width="223pt" height="120pt"
 viewBox="0.00 0.00 223.00 120.00" xmlns="http://www.w3.org/2000/svg" xmlns:xlink="http://www.w3.org/1999/xlink">
<g id="graph0" class="graph" transform="scale(1 1) rotate(0) translate(4 116)">
<title>G</title>
<polygon fill="white" stroke="none" points="-4,4 -4,-116 219,-116 219,4 -4,4"/>
<!-- g1 -->
<g id="node1" class="node">
<title>g1</title>
<polygon fill="none" stroke="black" points="0,-65.5 0,-111.5 94,-111.5 94,-65.5 0,-65.5"/>
<text text-anchor="middle" x="12" y="-96.3" font-family="Times New Roman,serif" font-size="14.00">a</text>
<polyline fill="none" stroke="black" points="0,-88.5 24,-88.5"/>
<text text-anchor="middle" x="12" y="-73.3" font-family="Times New Roman,serif" font-size="14.00">b</text>
<polyline fill="none" stroke="black" points="24,-65.5 24,-111.5"/>
<text text-anchor="middle" x="47" y="-84.8" font-family="Times New Roman,serif" font-size="14.00">AND</text>
<polyline fill="none" stroke="black" points="70,-65.5 70,-111.5"/>
<text text-anchor="middle" x="82" y="-84.8" font-family="Times New Roman,serif" font-size="14.00">o</text>
</g>
<!-- g3 -->
<g id="node3" class="node">
<title>g3</title>
<polygon fill="none" stroke="black" points="130,-32.5 130,-78.5 215,-78.5 215,-32.5 130,-32.5"/>
<text text-anchor="middle" x="142" y="-63.3" font-family="Times New Roman,serif" font-size="14.00">a</text>
<polyline fill="none" stroke="black" points="130,-55.5 154,-55.5"/>
<text text-anchor="middle" x="142" y="-40.3" font-family="Times New Roman,serif" font-size="14.00">b</text>
<polyline fill="none" stroke="black" points="154,-32.5 154,-78.5"/>
<text text-anchor="middle" x="172.5" y="-51.8" font-family="Times New Roman,serif" font-size="14.00">OR</text>
<polyline fill="none" stroke="black" points="191,-32.5 191,-78.5"/>
<text text-anchor="middle" x="203" y="-51.8" font-family="Times New Roman,serif" font-size="14.00">o</text>
</g>
<!-- g1&#45;&gt;g3 -->
<g id="edge1" class="edge">
<title>g1:o&#45;&gt;g3:a</title>
<path fill="none" stroke="black" d="M94,-88.5C108.47,-88.5 111,-75.68 120.24,-70.08"/>
<polygon fill="black" stroke="black" points="121.22,-73.44 130,-67.5 119.44,-66.67 121.22,-73.44"/>
</g>
<!-- g2 -->
<g id="node2" class="node">
<title>g2</title>
<polygon fill="none" stroke="black" points="0,-0.5 0,-46.5 94,-46.5 94,-0.5 0,-0.5"/>
<text text-anchor="middle" x="12" y="-31.3" font-family="Times New Roman,serif" font-size="14.00">a</text>
<polyline fill="none" stroke="black" points="0,-23.5 24,-23.5"/>
<text text-anchor="middle" x="12" y="-8.3" font-family="Times New Roman,serif" font-size="14.00">b</text>
<polyline fill="none" stroke="black" points="24,-0.5 24,-46.5"/>
<text text-anchor="middle" x="47" y="-19.8" font-family="Times New Roman,serif" font-size="14.00">AND</text>
<polyline fill="none" stroke="black" points="70,-0.5 70,-46.5"/>
<text text-anchor="middle" x="82" y="-19.8" font-family="Times New Roman,serif" font-size="14.00">o</text>
</g>
<!-- g2&#45;&gt;g3 -->
<g id="edge2" class="edge">
<title>g2:o&#45;&gt;g3:b</title>
<path fill="none" stroke="black" d="M94,-23.5C108.16,-23.5 111,-35.46 120.03,-40.89"/>
<polygon fill="black" stroke="black" points="119.44,-44.35 130,-43.5 121.22,-37.58 119.44,-44.35"/>
</g>
</g>
</svg>
