<?xml version="1.0" encoding="UTF-8" standalone="no"?>
<!DOCTYPE svg PUBLIC "-//W3C//DTD SVG 1.1//EN"
 "http://www.w3.org/Graphics/SVG/1.1/DTD/svg11.dtd">
<!-- Generated by graphviz version 5.0.1 (20220820.1526)
 -->
<!-- Title: G Pages: 1 -->
<svg width="168pt" height="181pt"
 viewBox="0.00 0.00 168.49 181.36" xmlns="http://www.w3.org/2000/svg" xmlns:xlink="http://www.w3.org/1999/xlink">
<g id="graph0" class="graph" transform="scale(1 1) rotate(0) translate(4 177.36)">
<title>G</title>
<polygon fill="white" stroke="none" points="-4,4 -4,-177.36 164.49,-177.36 164.49,4 -4,4"/>
<!-- g1 -->
<g id="node1" class="node">
<title>g1</title>
<polygon fill="none" stroke="black" points="0,-0.5 0,-46.5 94,-46.5 94,-0.5 0,-0.5"/>
<text text-anchor="middle" x="12" y="-31.3" font-family="Times New Roman,serif" font-size="14.00">a</text>
<polyline fill="none" stroke="black" points="0,-23.5 24,-23.5"/>
<text text-anchor="middle" x="12" y="-8.3" font-family="Times New Roman,serif" font-size="14.00">b</text>
<polyline fill="none" stroke="black" points="24,-0.5 24,-46.5"/>
<text text-anchor="middle" x="47" y="-19.8" font-family="Times New Roman,serif" font-size="14.00">AND</text>
<polyline fill="none" stroke="black" points="70,-0.5 70,-46.5"/>
<text text-anchor="middle" x="82" y="-19.8" font-family="Times New Roman,serif" font-size="14.00">o</text>
</g>
<!-- g3 -->
<g id="node3" class="node">
<title>g3</title>
<polygon fill="none" stroke="black" points="47.73,-58.42 47.73,-104.42 132.73,-104.42 132.73,-58.42 47.73,-58.42"/>
<text text-anchor="middle" x="59.73" y="-89.22" font-family="Times New Roman,serif" font-size="14.00">a</text>
<polyline fill="none" stroke="black" points="47.73,-81.42 71.73,-81.42"/>
<text text-anchor="middle" x="59.73" y="-66.22" font-family="Times New Roman,serif" font-size="14.00">b</text>
<polyline fill="none" stroke="black" points="71.73,-58.42 71.73,-104.42"/>
<text text-anchor="middle" x="90.23" y="-77.72" font-family="Times New Roman,serif" font-size="14.00">OR</text>
<polyline fill="none" stroke="black" points="108.73,-58.42 108.73,-104.42"/>
<text text-anchor="middle" x="120.73" y="-77.72" font-family="Times New Roman,serif" font-size="14.00">o</text>
</g>
<!-- g1&#45;&gt;g3 -->
<g id="edge1" class="edge">
<title>g1:o&#45;&gt;g3:a</title>
<path fill="none" stroke="black" d="M82,-46.5C82,-46.5 63.25,-71.8 53.29,-85.25"/>
<polygon fill="black" stroke="black" points="50.37,-83.3 47.23,-93.42 56,-87.47 50.37,-83.3"/>
</g>
<!-- g2 -->
<g id="node2" class="node">
<title>g2</title>
<polygon fill="none" stroke="black" points="66.49,-126.86 66.49,-172.86 160.49,-172.86 160.49,-126.86 66.49,-126.86"/>
<text text-anchor="middle" x="78.49" y="-157.66" font-family="Times New Roman,serif" font-size="14.00">a</text>
<polyline fill="none" stroke="black" points="66.49,-149.86 90.49,-149.86"/>
<text text-anchor="middle" x="78.49" y="-134.66" font-family="Times New Roman,serif" font-size="14.00">b</text>
<polyline fill="none" stroke="black" points="90.49,-126.86 90.49,-172.86"/>
<text text-anchor="middle" x="113.49" y="-146.16" font-family="Times New Roman,serif" font-size="14.00">AND</text>
<polyline fill="none" stroke="black" points="136.49,-126.86 136.49,-172.86"/>
<text text-anchor="middle" x="148.49" y="-146.16" font-family="Times New Roman,serif" font-size="14.00">o</text>
</g>
<!-- g2&#45;&gt;g3 -->
<g id="edge2" class="edge">
<title>g2:o&#45;&gt;g3:b</title>
<path fill="none" stroke="black" d="M148.49,-126.86C148.49,-126.86 81,-88.58 56.22,-74.52"/>
<polygon fill="black" stroke="black" points="57.66,-71.31 47.23,-69.42 54.2,-77.4 57.66,-71.31"/>
</g>
</g>
</svg>
