<?xml version="1.0" encoding="UTF-8" standalone="no"?>
<!DOCTYPE svg PUBLIC "-//W3C//DTD SVG 1.1//EN"
 "http://www.w3.org/Graphics/SVG/1.1/DTD/svg11.dtd">
<!-- Generated by graphviz version 5.0.1 (20220820.1526)
 -->
<!-- Title: JobStateDiagram Pages: 1 -->
<svg width="576pt" height="237pt"
 viewBox="0.00 0.00 576.00 237.31" xmlns="http://www.w3.org/2000/svg" xmlns:xlink="http://www.w3.org/1999/xlink">
<g id="graph0" class="graph" transform="scale(0.611465 0.611465) rotate(0) translate(4 384.1)">
<title>JobStateDiagram</title>
<polygon fill="white" stroke="none" points="-4,4 -4,-384.1 938,-384.1 938,4 -4,4"/>
<!-- Created -->
<g id="node1" class="node">
<title>Created</title>
<ellipse fill="black" stroke="black" stroke-width="2" cx="15" cy="-176.1" rx="9" ry="9"/>
</g>
<!-- Empty -->
<g id="node3" class="node">
<title>Empty</title>
<path fill="#a0ffa0" stroke="black" stroke-width="2" d="M197,-173.1C197,-173.1 127,-173.1 127,-173.1 121,-173.1 115,-167.1 115,-161.1 115,-161.1 115,-149.1 115,-149.1 115,-143.1 121,-137.1 127,-137.1 127,-137.1 197,-137.1 197,-137.1 203,-137.1 209,-143.1 209,-149.1 209,-149.1 209,-161.1 209,-161.1 209,-167.1 203,-173.1 197,-173.1"/>
<text text-anchor="middle" x="162" y="-151.4" font-family="Arial" font-size="14.00">Empty</text>
</g>
<!-- Created&#45;&gt;Empty -->
<g id="edge14" class="edge">
<title>Created&#45;&gt;Empty</title>
<path fill="none" stroke="#aaaaaa" stroke-width="2" d="M24.21,-174.92C39.66,-172.68 74.24,-167.67 104.77,-163.25"/>
<polygon fill="#aaaaaa" stroke="#aaaaaa" stroke-width="2" points="105.53,-166.67 114.93,-161.78 104.53,-159.75 105.53,-166.67"/>
<text text-anchor="middle" x="72.5" y="-174.9" font-family="Arial" font-size="14.00">initialize</text>
</g>
<!-- Destroyed -->
<g id="node2" class="node">
<title>Destroyed</title>
<ellipse fill="black" stroke="black" stroke-width="2" cx="15" cy="-134.1" rx="11" ry="11"/>
<ellipse fill="none" stroke="black" stroke-width="2" cx="15" cy="-134.1" rx="15" ry="15"/>
</g>
<!-- Empty&#45;&gt;Destroyed -->
<g id="edge15" class="edge">
<title>Empty&#45;&gt;Destroyed</title>
<path fill="none" stroke="#aaaaaa" stroke-width="2" d="M114.94,-148.43C89.99,-144.82 60.19,-140.51 39.86,-137.56"/>
<polygon fill="#aaaaaa" stroke="#aaaaaa" stroke-width="2" points="40.3,-134.09 29.9,-136.12 39.3,-141.02 40.3,-134.09"/>
<text text-anchor="middle" x="72.5" y="-149.9" font-family="Arial" font-size="14.00">finalize</text>
</g>
<!-- Announced -->
<g id="node5" class="node">
<title>Announced</title>
<path fill="#a0ffa0" stroke="black" stroke-width="2" d="M389,-173.1C389,-173.1 319,-173.1 319,-173.1 313,-173.1 307,-167.1 307,-161.1 307,-161.1 307,-149.1 307,-149.1 307,-143.1 313,-137.1 319,-137.1 319,-137.1 389,-137.1 389,-137.1 395,-137.1 401,-143.1 401,-149.1 401,-149.1 401,-161.1 401,-161.1 401,-167.1 395,-173.1 389,-173.1"/>
<text text-anchor="middle" x="354" y="-151.4" font-family="Arial" font-size="14.00">Announced</text>
</g>
<!-- Empty&#45;&gt;Announced -->
<g id="edge1" class="edge">
<title>Empty&#45;&gt;Announced</title>
<path fill="none" stroke="black" stroke-width="2" d="M209.48,-155.1C235.68,-155.1 268.62,-155.1 296.33,-155.1"/>
<polygon fill="black" stroke="black" stroke-width="2" points="296.67,-158.6 306.67,-155.1 296.67,-151.6 296.67,-158.6"/>
<text text-anchor="middle" x="258" y="-158.9" font-family="Arial" font-size="14.00">announce</text>
</g>
<!-- Failed -->
<g id="node4" class="node">
<title>Failed</title>
<path fill="#ffa0a0" stroke="black" stroke-width="2" d="M389,-288.1C389,-288.1 319,-288.1 319,-288.1 313,-288.1 307,-282.1 307,-276.1 307,-276.1 307,-264.1 307,-264.1 307,-258.1 313,-252.1 319,-252.1 319,-252.1 389,-252.1 389,-252.1 395,-252.1 401,-258.1 401,-264.1 401,-264.1 401,-276.1 401,-276.1 401,-282.1 395,-288.1 389,-288.1"/>
<text text-anchor="middle" x="354" y="-266.4" font-family="Arial" font-size="14.00">Failed</text>
</g>
<!-- Failed&#45;&gt;Empty -->
<g id="edge13" class="edge">
<title>Failed&#45;&gt;Empty</title>
<path fill="none" stroke="#aaaaaa" stroke-width="2" d="M306.72,-273.84C281.41,-273.71 250.52,-269.85 227,-255.1 200.41,-238.44 182.81,-206.22 172.91,-182.85"/>
<polygon fill="#aaaaaa" stroke="#aaaaaa" stroke-width="2" points="176.11,-181.43 169.14,-173.45 169.62,-184.03 176.11,-181.43"/>
<text text-anchor="middle" x="258" y="-275.9" font-family="Arial" font-size="14.00">revoke</text>
</g>
<!-- Failed&#45;&gt;Announced -->
<g id="edge12" class="edge">
<title>Failed&#45;&gt;Announced</title>
<path fill="none" stroke="#aaaaaa" stroke-width="2" d="M306.93,-264.98C283.61,-259.79 257.42,-249.4 243,-228.6 224.19,-201.5 260.87,-181.77 297.01,-169.62"/>
<polygon fill="#aaaaaa" stroke="#aaaaaa" stroke-width="2" points="298.18,-172.92 306.64,-166.54 296.05,-166.25 298.18,-172.92"/>
<text text-anchor="middle" x="258" y="-217.4" font-family="Arial" font-size="14.00">announce</text>
</g>
<!-- Announced&#45;&gt;Empty -->
<g id="edge16" class="edge">
<title>Announced&#45;&gt;Empty</title>
<path fill="none" stroke="#aaaaaa" stroke-width="2" d="M306.76,-168.08C300.82,-169.33 294.8,-170.39 289,-171.1 261.65,-174.47 254.35,-174.47 227,-171.1 224.46,-170.79 221.88,-170.41 219.29,-169.98"/>
<polygon fill="#aaaaaa" stroke="#aaaaaa" stroke-width="2" points="219.72,-166.5 209.24,-168.08 218.41,-173.38 219.72,-166.5"/>
<text text-anchor="middle" x="258" y="-177.9" font-family="Arial" font-size="14.00">revoke</text>
</g>
<!-- Assigned -->
<g id="node6" class="node">
<title>Assigned</title>
<path fill="#a0ffa0" stroke="black" stroke-width="2" d="M581,-173.1C581,-173.1 511,-173.1 511,-173.1 505,-173.1 499,-167.1 499,-161.1 499,-161.1 499,-149.1 499,-149.1 499,-143.1 505,-137.1 511,-137.1 511,-137.1 581,-137.1 581,-137.1 587,-137.1 593,-143.1 593,-149.1 593,-149.1 593,-161.1 593,-161.1 593,-167.1 587,-173.1 581,-173.1"/>
<text text-anchor="middle" x="546" y="-151.4" font-family="Arial" font-size="14.00">Assigned</text>
</g>
<!-- Announced&#45;&gt;Assigned -->
<g id="edge2" class="edge">
<title>Announced&#45;&gt;Assigned</title>
<path fill="none" stroke="black" stroke-width="2" d="M401.48,-155.1C427.68,-155.1 460.62,-155.1 488.33,-155.1"/>
<polygon fill="black" stroke="black" stroke-width="2" points="488.67,-158.6 498.67,-155.1 488.67,-151.6 488.67,-158.6"/>
<text text-anchor="middle" x="450" y="-158.9" font-family="Arial" font-size="14.00">assign</text>
</g>
<!-- TimedOut -->
<g id="node9" class="node">
<title>TimedOut</title>
<path fill="#ffa0a0" stroke="black" stroke-width="2" d="M581,-101.1C581,-101.1 511,-101.1 511,-101.1 505,-101.1 499,-95.1 499,-89.1 499,-89.1 499,-77.1 499,-77.1 499,-71.1 505,-65.1 511,-65.1 511,-65.1 581,-65.1 581,-65.1 587,-65.1 593,-71.1 593,-77.1 593,-77.1 593,-89.1 593,-89.1 593,-95.1 587,-101.1 581,-101.1"/>
<text text-anchor="middle" x="546" y="-79.4" font-family="Arial" font-size="14.00">TimedOut</text>
</g>
<!-- Announced&#45;&gt;TimedOut -->
<g id="edge6" class="edge">
<title>Announced&#45;&gt;TimedOut</title>
<path fill="none" stroke="#aaaaaa" stroke-width="2" d="M364.36,-136.89C374.88,-118.67 393.82,-91.72 419,-80.1 440.45,-70.21 466.22,-69.19 488.85,-71.33"/>
<polygon fill="#aaaaaa" stroke="#aaaaaa" stroke-width="2" points="488.66,-74.83 499,-72.51 489.47,-67.88 488.66,-74.83"/>
<text text-anchor="middle" x="450" y="-83.9" font-family="Arial" font-size="14.00">timeout</text>
</g>
<!-- Assigned&#45;&gt;Empty -->
<g id="edge17" class="edge">
<title>Assigned&#45;&gt;Empty</title>
<path fill="none" stroke="#aaaaaa" stroke-width="2" d="M498.86,-168.83C492.86,-170.61 486.78,-172.4 481,-174.1 395.73,-199.2 377,-217.53 289,-230.1 261.72,-234 252.02,-241.65 227,-230.1 205.56,-220.21 188.64,-199.2 177.6,-181.93"/>
<polygon fill="#aaaaaa" stroke="#aaaaaa" stroke-width="2" points="180.55,-180.05 172.36,-173.32 174.57,-183.68 180.55,-180.05"/>
<text text-anchor="middle" x="354" y="-229.9" font-family="Arial" font-size="14.00">revoke</text>
</g>
<!-- Working -->
<g id="node7" class="node">
<title>Working</title>
<path fill="#a0ffa0" stroke="black" stroke-width="2" d="M758,-173.1C758,-173.1 688,-173.1 688,-173.1 682,-173.1 676,-167.1 676,-161.1 676,-161.1 676,-149.1 676,-149.1 676,-143.1 682,-137.1 688,-137.1 688,-137.1 758,-137.1 758,-137.1 764,-137.1 770,-143.1 770,-149.1 770,-149.1 770,-161.1 770,-161.1 770,-167.1 764,-173.1 758,-173.1"/>
<text text-anchor="middle" x="723" y="-151.4" font-family="Arial" font-size="14.00">Working</text>
</g>
<!-- Assigned&#45;&gt;Working -->
<g id="edge3" class="edge">
<title>Assigned&#45;&gt;Working</title>
<path fill="none" stroke="black" stroke-width="2" d="M593.44,-155.1C615.67,-155.1 642.47,-155.1 665.83,-155.1"/>
<polygon fill="black" stroke="black" stroke-width="2" points="665.95,-158.6 675.95,-155.1 665.95,-151.6 665.95,-158.6"/>
<text text-anchor="middle" x="634.5" y="-158.9" font-family="Arial" font-size="14.00">start</text>
</g>
<!-- Assigned&#45;&gt;TimedOut -->
<g id="edge7" class="edge">
<title>Assigned&#45;&gt;TimedOut</title>
<path fill="none" stroke="#aaaaaa" stroke-width="2" d="M546,-136.69C546,-129.05 546,-120 546,-111.53"/>
<polygon fill="#aaaaaa" stroke="#aaaaaa" stroke-width="2" points="549.5,-111.27 546,-101.27 542.5,-111.27 549.5,-111.27"/>
<text text-anchor="middle" x="535.5" y="-115.4" font-family="Arial" font-size="14.00">timeout</text>
</g>
<!-- Working&#45;&gt;Empty -->
<g id="edge18" class="edge">
<title>Working&#45;&gt;Empty</title>
<path fill="none" stroke="#aaaaaa" stroke-width="2" d="M633.5,-294.1C478.93,-387.64 375.82,-393.55 227,-291.1 186.81,-263.43 171.18,-203.62 165.68,-173.39"/>
<text text-anchor="middle" x="450" y="-368.9" font-family="Arial" font-size="14.00">revoke</text>
</g>
<!-- Working&#45;&gt;Failed -->
<g id="edge9" class="edge">
<title>Working&#45;&gt;Failed</title>
<path fill="none" stroke="#aaaaaa" stroke-width="2" d="M633.5,-294.1C617.51,-302.94 611.13,-289.31 593,-287.1 526.59,-279.01 449.25,-274.37 401.2,-272.04"/>
<path fill="none" stroke="#aaaaaa" stroke-width="2" d="M716.99,-173.35C707.87,-202.78 685.55,-260.33 644.06,-288.81"/>
<polygon fill="#aaaaaa" stroke="#aaaaaa" stroke-width="2" points="642.16,-285.87 635.5,-294.1 645.85,-291.82 642.16,-285.87"/>
<text text-anchor="middle" x="546" y="-290.9" font-family="Arial" font-size="14.00">error</text>
</g>
<!-- Ready -->
<g id="node8" class="node">
<title>Ready</title>
<path fill="#a0ffa0" stroke="black" stroke-width="2" d="M922,-173.1C922,-173.1 852,-173.1 852,-173.1 846,-173.1 840,-167.1 840,-161.1 840,-161.1 840,-149.1 840,-149.1 840,-143.1 846,-137.1 852,-137.1 852,-137.1 922,-137.1 922,-137.1 928,-137.1 934,-143.1 934,-149.1 934,-149.1 934,-161.1 934,-161.1 934,-167.1 928,-173.1 922,-173.1"/>
<text text-anchor="middle" x="887" y="-151.4" font-family="Arial" font-size="14.00">Ready</text>
</g>
<!-- Working&#45;&gt;Ready -->
<g id="edge4" class="edge">
<title>Working&#45;&gt;Ready</title>
<path fill="none" stroke="black" stroke-width="2" d="M770.42,-155.1C788.89,-155.1 810.31,-155.1 829.65,-155.1"/>
<polygon fill="black" stroke="black" stroke-width="2" points="829.85,-158.6 839.85,-155.1 829.85,-151.6 829.85,-158.6"/>
<text text-anchor="middle" x="805" y="-158.9" font-family="Arial" font-size="14.00">finish</text>
</g>
<!-- Working&#45;&gt;TimedOut -->
<g id="edge8" class="edge">
<title>Working&#45;&gt;TimedOut</title>
<path fill="none" stroke="#aaaaaa" stroke-width="2" d="M678.16,-137.07C654.6,-127.37 625.35,-115.34 600.46,-105.1"/>
<polygon fill="#aaaaaa" stroke="#aaaaaa" stroke-width="2" points="601.74,-101.84 591.16,-101.27 599.08,-108.32 601.74,-101.84"/>
<text text-anchor="middle" x="634.5" y="-131.9" font-family="Arial" font-size="14.00">timeout</text>
</g>
<!-- Ready&#45;&gt;Empty -->
<g id="edge5" class="edge">
<title>Ready&#45;&gt;Empty</title>
<path fill="none" stroke="black" stroke-width="2" d="M877.76,-137.02C857.76,-96.13 802.43,-0.1 724,-0.1 449,-0.1 449,-0.1 449,-0.1 365.68,-0.1 334.14,1.57 267.72,-40.47"/>
<polygon fill="black" stroke="black" stroke-width="2" points="265.5,-37.74 259,-46.1 269.3,-43.62 265.5,-37.74"/>
<path fill="none" stroke="black" stroke-width="2" d="M257,-46.1C220.28,-70.31 189.62,-112.75 174.04,-136.92"/>
<text text-anchor="middle" x="546" y="-3.9" font-family="Arial" font-size="14.00">revoke</text>
</g>
<!-- TimedOut&#45;&gt;Empty -->
<g id="edge11" class="edge">
<title>TimedOut&#45;&gt;Empty</title>
<path fill="none" stroke="#aaaaaa" stroke-width="2" d="M509.05,-64.91C453.88,-39.68 346.49,-1.43 267.95,-41.16"/>
<polygon fill="#aaaaaa" stroke="#aaaaaa" stroke-width="2" points="266.06,-38.2 259,-46.1 269.45,-44.33 266.06,-38.2"/>
<text text-anchor="middle" x="354" y="-32.9" font-family="Arial" font-size="14.00">revoke</text>
</g>
<!-- TimedOut&#45;&gt;Announced -->
<g id="edge10" class="edge">
<title>TimedOut&#45;&gt;Announced</title>
<path fill="none" stroke="#aaaaaa" stroke-width="2" d="M498.67,-100.66C472.26,-110.67 438.98,-123.28 411.1,-133.85"/>
<polygon fill="#aaaaaa" stroke="#aaaaaa" stroke-width="2" points="409.59,-130.68 401.48,-137.49 412.07,-137.22 409.59,-130.68"/>
<text text-anchor="middle" x="450" y="-133.9" font-family="Arial" font-size="14.00">announce</text>
</g>
</g>
</svg>
