<?xml version="1.0" encoding="UTF-8" standalone="no"?>
<!DOCTYPE svg PUBLIC "-//W3C//DTD SVG 1.1//EN"
 "http://www.w3.org/Graphics/SVG/1.1/DTD/svg11.dtd">
<!-- Generated by graphviz version 5.0.1 (20220820.1526)
 -->
<!-- Title: ok Pages: 1 -->
<svg width="422pt" height="188pt"
 viewBox="0.00 0.00 422.00 188.00" xmlns="http://www.w3.org/2000/svg" xmlns:xlink="http://www.w3.org/1999/xlink">
<g id="graph0" class="graph" transform="scale(1 1) rotate(0) translate(4 184)">
<title>ok</title>
<polygon fill="white" stroke="none" points="-4,4 -4,-184 418,-184 418,4 -4,4"/>
<!-- a -->
<g id="node1" class="node">
<title>a</title>
<polygon fill="none" stroke="black" points="54,-36 0,-36 0,0 54,0 54,-36"/>
<text text-anchor="middle" x="27" y="-14.3" font-family="Times New Roman,serif" font-size="14.00">a</text>
</g>
<!-- b -->
<g id="node2" class="node">
<title>b</title>
<polygon fill="none" stroke="black" points="126,-108 72,-108 72,-72 126,-72 126,-108"/>
<text text-anchor="middle" x="99" y="-86.3" font-family="Times New Roman,serif" font-size="14.00">b</text>
</g>
<!-- a&#45;&gt;b -->
<g id="edge1" class="edge">
<title>a&#45;&gt;b</title>
<path fill="none" stroke="black" d="M45.17,-36.17C53.72,-44.72 64.06,-55.06 73.38,-64.38"/>
<polygon fill="black" stroke="black" points="71.04,-66.99 80.59,-71.59 75.99,-62.04 71.04,-66.99"/>
</g>
<!-- c -->
<g id="node3" class="node">
<title>c</title>
<polygon fill="none" stroke="black" points="414,-180 360,-180 360,-144 414,-144 414,-180"/>
<text text-anchor="middle" x="387" y="-158.3" font-family="Times New Roman,serif" font-size="14.00">c</text>
</g>
<!-- b&#45;&gt;c -->
<g id="edge2" class="edge">
<title>b&#45;&gt;c</title>
<path fill="none" stroke="black" d="M126.09,-96.77C177.88,-109.72 290.96,-137.99 349.78,-152.7"/>
<polygon fill="black" stroke="black" points="349.22,-156.16 359.77,-155.19 350.92,-149.37 349.22,-156.16"/>
</g>
</g>
</svg>
